<svg width="24" height="24" viewBox="0 0 24 24" fill="none" xmlns="http://www.w3.org/2000/svg">
  <path d="M12.0002 10.2859C8.27793 10.2859 3.00033 16.8623 3.00033 21.0134C3.00033 22.8831 4.25703 24 6.36311 24C8.65246 24 10.1642 22.6565 12.0002 22.6565C13.8522 22.6565 15.3682 24 17.6374 24C19.7434 24 21.0001 22.8831 21.0001 21.0134C21.0001 16.8623 15.7225 10.2859 12.0002 10.2859ZM5.09656 9.61041C4.60906 7.75418 3.1072 6.55206 1.74222 6.92491C0.377231 7.29776 -0.333856 9.1047 0.153639 10.9609C0.641134 12.8171 2.14299 14.0193 3.50798 13.6464C4.87297 13.2736 5.58405 11.4666 5.09656 9.61041V9.61041ZM9.06776 8.49721C10.5181 8.06114 11.2437 5.82189 10.6887 3.49586C10.1337 1.16982 8.50808 -0.36176 7.05779 0.0743051C5.60749 0.51037 4.88187 2.74962 5.43687 5.07565C5.99186 7.40169 7.61794 8.93381 9.06776 8.49721ZM22.2578 6.92545C20.8928 6.5526 19.3914 7.75472 18.9034 9.61094C18.4159 11.4672 19.127 13.2741 20.492 13.6469C21.857 14.0198 23.3584 12.8177 23.8464 10.9615C24.3339 9.10523 23.6228 7.2983 22.2578 6.92545V6.92545ZM14.9327 8.49721C16.383 8.93327 18.0086 7.40169 18.5636 5.07565C19.1186 2.74962 18.393 0.510905 16.9427 0.0743051C15.4924 -0.362295 13.8668 1.16982 13.3118 3.49586C12.7568 5.82189 13.4824 8.06114 14.9327 8.49721V8.49721Z" fill="black"/>
</svg>
