<svg width="30" height="28" viewBox="0 0 30 28" fill="none" xmlns="http://www.w3.org/2000/svg">
  <path d="M15 12.5094C10.347 12.5094 3.74996 19.9131 3.74996 24.5865C3.74996 26.6913 5.32086 27.9488 7.95348 27.9488C10.8152 27.9488 12.7048 26.4362 15 26.4362C17.315 26.4362 19.2099 27.9488 22.0464 27.9488C24.6791 27.9488 26.25 26.6913 26.25 24.5865C26.25 19.9131 19.6529 12.5094 15 12.5094ZM6.37028 11.7489C5.7609 9.65918 3.88356 8.30583 2.17731 8.72558C0.471055 9.14534 -0.417812 11.1796 0.191563 13.2693C0.800938 15.3591 2.67828 16.7124 4.38453 16.2927C6.09078 15.8729 6.97965 13.8387 6.37028 11.7489ZM11.3343 10.4957C13.1472 10.0048 14.0543 7.4838 13.3605 4.86515C12.6668 2.24649 10.6347 0.522235 8.82184 1.01316C7.00895 1.50408 6.10192 4.02503 6.79567 6.64369C7.48942 9.26234 9.52203 10.9872 11.3343 10.4957ZM27.822 8.72619C26.1158 8.30643 24.239 9.65978 23.6291 11.7495C23.0197 13.8393 23.9086 15.8735 25.6148 16.2933C27.3211 16.713 29.1978 15.3597 29.8078 13.2699C30.4172 11.1802 29.5283 9.14594 27.822 8.72619ZM18.6656 10.4957C20.4785 10.9866 22.5105 9.26234 23.2043 6.64369C23.898 4.02503 22.991 1.50468 21.1781 1.01316C19.3652 0.521632 17.3332 2.24649 16.6394 4.86515C15.9457 7.4838 16.8527 10.0048 18.6656 10.4957Z" fill="#6F6F6F"/>
</svg>