<svg viewBox="0 0 415 280" fill="none" xmlns="http://www.w3.org/2000/svg">
<rect y="61" width="128" height="25" rx="12.5" fill="#F9FAFF"/>
<rect x="127" y="250" width="203" height="30" rx="15" fill="#E8FFFE"/>
<rect x="276" y="227" width="125" height="12" rx="6" fill="#FFE4E4"/>
<rect x="6" width="333" height="30" rx="15" fill="#FFF0FF"/>
<path d="M18.9902 19V10.4688H21.7793C22.7051 10.4688 23.4004 10.6602 23.8652 11.043C24.334 11.4258 24.5684 11.9922 24.5684 12.7422C24.5684 13.1406 24.4551 13.4941 24.2285 13.8027C24.002 14.1074 23.6934 14.3438 23.3027 14.5117C23.7637 14.6406 24.127 14.8867 24.3926 15.25C24.6621 15.6094 24.7969 16.0391 24.7969 16.5391C24.7969 17.3047 24.5488 17.9062 24.0527 18.3438C23.5566 18.7812 22.8555 19 21.9492 19H18.9902ZM20.1152 15.0098V18.0801H21.9727C22.4961 18.0801 22.9082 17.9453 23.209 17.6758C23.5137 17.4023 23.666 17.0273 23.666 16.5508C23.666 15.5234 23.1074 15.0098 21.9902 15.0098H20.1152ZM20.1152 14.1074H21.8145C22.3066 14.1074 22.6992 13.9844 22.9922 13.7383C23.2891 13.4922 23.4375 13.1582 23.4375 12.7363C23.4375 12.2676 23.3008 11.9277 23.0273 11.7168C22.7539 11.502 22.3379 11.3945 21.7793 11.3945H20.1152V14.1074ZM32.9238 17.5645L35.0801 12.6602H36.4336V19H35.3496V14.3887L33.2988 19H32.5488L30.457 14.2891V19H29.373V12.6602H30.7793L32.9238 17.5645ZM40.8105 19.1172C39.9512 19.1172 39.252 18.8359 38.7129 18.2734C38.1738 17.707 37.9043 16.9512 37.9043 16.0059V15.8066C37.9043 15.1777 38.0234 14.6172 38.2617 14.125C38.5039 13.6289 38.8398 13.2422 39.2695 12.9648C39.7031 12.6836 40.1719 12.543 40.6758 12.543C41.5 12.543 42.1406 12.8145 42.5977 13.3574C43.0547 13.9004 43.2832 14.6777 43.2832 15.6895V16.1406H38.9883C39.0039 16.7656 39.1855 17.2715 39.5332 17.6582C39.8848 18.041 40.3301 18.2324 40.8691 18.2324C41.252 18.2324 41.5762 18.1543 41.8418 17.998C42.1074 17.8418 42.3398 17.6348 42.5391 17.377L43.2012 17.8926C42.6699 18.709 41.873 19.1172 40.8105 19.1172ZM40.6758 13.4336C40.2383 13.4336 39.8711 13.5938 39.5742 13.9141C39.2773 14.2305 39.0938 14.6758 39.0234 15.25H42.1992V15.168C42.168 14.6172 42.0195 14.1914 41.7539 13.8906C41.4883 13.5859 41.1289 13.4336 40.6758 13.4336ZM49.7227 19H48.6387V16.293H45.7266V19H44.6367V12.6602H45.7266V15.4082H48.6387V12.6602H49.7227V19ZM54.0996 19.1172C53.2402 19.1172 52.541 18.8359 52.002 18.2734C51.4629 17.707 51.1934 16.9512 51.1934 16.0059V15.8066C51.1934 15.1777 51.3125 14.6172 51.5508 14.125C51.793 13.6289 52.1289 13.2422 52.5586 12.9648C52.9922 12.6836 53.4609 12.543 53.9648 12.543C54.7891 12.543 55.4297 12.8145 55.8867 13.3574C56.3438 13.9004 56.5723 14.6777 56.5723 15.6895V16.1406H52.2773C52.293 16.7656 52.4746 17.2715 52.8223 17.6582C53.1738 18.041 53.6191 18.2324 54.1582 18.2324C54.541 18.2324 54.8652 18.1543 55.1309 17.998C55.3965 17.8418 55.6289 17.6348 55.8281 17.377L56.4902 17.8926C55.959 18.709 55.1621 19.1172 54.0996 19.1172ZM53.9648 13.4336C53.5273 13.4336 53.1602 13.5938 52.8633 13.9141C52.5664 14.2305 52.3828 14.6758 52.3125 15.25H55.4883V15.168C55.457 14.6172 55.3086 14.1914 55.043 13.8906C54.7773 13.5859 54.418 13.4336 53.9648 13.4336ZM64.459 17.5645L66.6152 12.6602H67.9688V19H66.8848V14.3887L64.834 19H64.084L61.9922 14.2891V19H60.9082V12.6602H62.3145L64.459 17.5645ZM73.6289 19C73.5664 18.875 73.5156 18.6523 73.4766 18.332C72.9727 18.8555 72.3711 19.1172 71.6719 19.1172C71.0469 19.1172 70.5332 18.9414 70.1309 18.5898C69.7324 18.2344 69.5332 17.7852 69.5332 17.2422C69.5332 16.582 69.7832 16.0703 70.2832 15.707C70.7871 15.3398 71.4941 15.1562 72.4043 15.1562H73.459V14.6582C73.459 14.2793 73.3457 13.9785 73.1191 13.7559C72.8926 13.5293 72.5586 13.416 72.1172 13.416C71.7305 13.416 71.4062 13.5137 71.1445 13.709C70.8828 13.9043 70.752 14.1406 70.752 14.418H69.6621C69.6621 14.1016 69.7734 13.7969 69.9961 13.5039C70.2227 13.207 70.5273 12.9727 70.9102 12.8008C71.2969 12.6289 71.7207 12.543 72.1816 12.543C72.9121 12.543 73.4844 12.7266 73.8984 13.0938C74.3125 13.457 74.5273 13.959 74.543 14.5996V17.5176C74.543 18.0996 74.6172 18.5625 74.7656 18.9062V19H73.6289ZM71.8301 18.1738C72.1699 18.1738 72.4922 18.0859 72.7969 17.9102C73.1016 17.7344 73.3223 17.5059 73.459 17.2246V15.9238H72.6094C71.2812 15.9238 70.6172 16.3125 70.6172 17.0898C70.6172 17.4297 70.7305 17.6953 70.957 17.8867C71.1836 18.0781 71.4746 18.1738 71.8301 18.1738ZM81.4395 12.6602V19H80.3496V13.5566H78.1934L78.0645 15.9297C77.9941 17.0195 77.8105 17.7988 77.5137 18.2676C77.2207 18.7363 76.7539 18.9805 76.1133 19H75.6797V18.0449L75.9902 18.0215C76.3418 17.9824 76.5938 17.7793 76.7461 17.4121C76.8984 17.0449 76.9961 16.3652 77.0391 15.373L77.1562 12.6602H81.4395ZM85.8105 19.1172C84.9512 19.1172 84.252 18.8359 83.7129 18.2734C83.1738 17.707 82.9043 16.9512 82.9043 16.0059V15.8066C82.9043 15.1777 83.0234 14.6172 83.2617 14.125C83.5039 13.6289 83.8398 13.2422 84.2695 12.9648C84.7031 12.6836 85.1719 12.543 85.6758 12.543C86.5 12.543 87.1406 12.8145 87.5977 13.3574C88.0547 13.9004 88.2832 14.6777 88.2832 15.6895V16.1406H83.9883C84.0039 16.7656 84.1855 17.2715 84.5332 17.6582C84.8848 18.041 85.3301 18.2324 85.8691 18.2324C86.252 18.2324 86.5762 18.1543 86.8418 17.998C87.1074 17.8418 87.3398 17.6348 87.5391 17.377L88.2012 17.8926C87.6699 18.709 86.873 19.1172 85.8105 19.1172ZM85.6758 13.4336C85.2383 13.4336 84.8711 13.5938 84.5742 13.9141C84.2773 14.2305 84.0938 14.6758 84.0234 15.25H87.1992V15.168C87.168 14.6172 87.0195 14.1914 86.7539 13.8906C86.4883 13.5859 86.1289 13.4336 85.6758 13.4336ZM94.7227 19H93.6387V16.293H90.7266V19H89.6367V12.6602H90.7266V15.4082H93.6387V12.6602H94.7227V19ZM97.6523 14.8457H99.2988C100.018 14.8535 100.586 15.041 101.004 15.4082C101.422 15.7754 101.631 16.2734 101.631 16.9023C101.631 17.5352 101.416 18.043 100.986 18.4258C100.557 18.8086 99.9785 19 99.252 19H96.5684V12.6602H97.6523V14.8457ZM97.6523 15.7305V18.1152H99.2637C99.6699 18.1152 99.9844 18.0117 100.207 17.8047C100.43 17.5938 100.541 17.3066 100.541 16.9434C100.541 16.5918 100.432 16.3047 100.213 16.082C99.998 15.8555 99.6953 15.7383 99.3047 15.7305H97.6523ZM104.959 16.2988H104.168V19H103.078V12.6602H104.168V15.3438H104.877L107.01 12.6602H108.322L105.814 15.707L108.533 19H107.156L104.959 16.2988ZM113.379 19C113.316 18.875 113.266 18.6523 113.227 18.332C112.723 18.8555 112.121 19.1172 111.422 19.1172C110.797 19.1172 110.283 18.9414 109.881 18.5898C109.482 18.2344 109.283 17.7852 109.283 17.2422C109.283 16.582 109.533 16.0703 110.033 15.707C110.537 15.3398 111.244 15.1562 112.154 15.1562H113.209V14.6582C113.209 14.2793 113.096 13.9785 112.869 13.7559C112.643 13.5293 112.309 13.416 111.867 13.416C111.48 13.416 111.156 13.5137 110.895 13.709C110.633 13.9043 110.502 14.1406 110.502 14.418H109.412C109.412 14.1016 109.523 13.7969 109.746 13.5039C109.973 13.207 110.277 12.9727 110.66 12.8008C111.047 12.6289 111.471 12.543 111.932 12.543C112.662 12.543 113.234 12.7266 113.648 13.0938C114.062 13.457 114.277 13.959 114.293 14.5996V17.5176C114.293 18.0996 114.367 18.5625 114.516 18.9062V19H113.379ZM111.58 18.1738C111.92 18.1738 112.242 18.0859 112.547 17.9102C112.852 17.7344 113.072 17.5059 113.209 17.2246V15.9238H112.359C111.031 15.9238 110.367 16.3125 110.367 17.0898C110.367 17.4297 110.48 17.6953 110.707 17.8867C110.934 18.0781 111.225 18.1738 111.58 18.1738ZM120.943 16.2988H120.152V19H119.062V12.6602H120.152V15.3438H120.861L122.994 12.6602H124.307L121.799 15.707L124.518 19H123.141L120.943 16.2988ZM125.549 19V12.6602H128.021C128.865 12.6602 129.512 12.8086 129.961 13.1055C130.414 13.3984 130.641 13.8301 130.641 14.4004C130.641 14.6934 130.553 14.959 130.377 15.1973C130.201 15.4316 129.941 15.6113 129.598 15.7363C129.98 15.8262 130.287 16.002 130.518 16.2637C130.752 16.5254 130.869 16.8379 130.869 17.2012C130.869 17.7832 130.654 18.2285 130.225 18.5371C129.799 18.8457 129.195 19 128.414 19H125.549ZM126.633 16.2168V18.127H128.426C128.879 18.127 129.217 18.043 129.439 17.875C129.666 17.707 129.779 17.4707 129.779 17.166C129.779 16.5332 129.314 16.2168 128.385 16.2168H126.633ZM126.633 15.3496H128.033C129.049 15.3496 129.557 15.0527 129.557 14.459C129.557 13.8652 129.076 13.5586 128.115 13.5391H126.633V15.3496ZM136.219 19C136.156 18.875 136.105 18.6523 136.066 18.332C135.562 18.8555 134.961 19.1172 134.262 19.1172C133.637 19.1172 133.123 18.9414 132.721 18.5898C132.322 18.2344 132.123 17.7852 132.123 17.2422C132.123 16.582 132.373 16.0703 132.873 15.707C133.377 15.3398 134.084 15.1562 134.994 15.1562H136.049V14.6582C136.049 14.2793 135.936 13.9785 135.709 13.7559C135.482 13.5293 135.148 13.416 134.707 13.416C134.32 13.416 133.996 13.5137 133.734 13.709C133.473 13.9043 133.342 14.1406 133.342 14.418H132.252C132.252 14.1016 132.363 13.7969 132.586 13.5039C132.812 13.207 133.117 12.9727 133.5 12.8008C133.887 12.6289 134.311 12.543 134.771 12.543C135.502 12.543 136.074 12.7266 136.488 13.0938C136.902 13.457 137.117 13.959 137.133 14.5996V17.5176C137.133 18.0996 137.207 18.5625 137.355 18.9062V19H136.219ZM134.42 18.1738C134.76 18.1738 135.082 18.0859 135.387 17.9102C135.691 17.7344 135.912 17.5059 136.049 17.2246V15.9238H135.199C133.871 15.9238 133.207 16.3125 133.207 17.0898C133.207 17.4297 133.32 17.6953 133.547 17.8867C133.773 18.0781 134.064 18.1738 134.42 18.1738ZM144.188 15.9004C144.188 16.8652 143.967 17.6426 143.525 18.2324C143.084 18.8223 142.486 19.1172 141.732 19.1172C140.963 19.1172 140.357 18.873 139.916 18.3848V21.4375H138.832V12.6602H139.822L139.875 13.3633C140.316 12.8164 140.93 12.543 141.715 12.543C142.477 12.543 143.078 12.8301 143.52 13.4043C143.965 13.9785 144.188 14.7773 144.188 15.8008V15.9004ZM143.104 15.7773C143.104 15.0625 142.951 14.498 142.646 14.084C142.342 13.6699 141.924 13.4629 141.393 13.4629C140.736 13.4629 140.244 13.7539 139.916 14.3359V17.3652C140.24 17.9434 140.736 18.2324 141.404 18.2324C141.924 18.2324 142.336 18.0273 142.641 17.6172C142.949 17.2031 143.104 16.5898 143.104 15.7773ZM149.812 13.5391H147.686V19H146.602V13.5391H144.516V12.6602H149.812V13.5391ZM154.969 12.6602H156.053V19H154.969V14.377L152.045 19H150.961V12.6602H152.045V17.2891L154.969 12.6602ZM163.148 15.9004C163.148 16.8652 162.928 17.6426 162.486 18.2324C162.045 18.8223 161.447 19.1172 160.693 19.1172C159.924 19.1172 159.318 18.873 158.877 18.3848V21.4375H157.793V12.6602H158.783L158.836 13.3633C159.277 12.8164 159.891 12.543 160.676 12.543C161.438 12.543 162.039 12.8301 162.48 13.4043C162.926 13.9785 163.148 14.7773 163.148 15.8008V15.9004ZM162.064 15.7773C162.064 15.0625 161.912 14.498 161.607 14.084C161.303 13.6699 160.885 13.4629 160.354 13.4629C159.697 13.4629 159.205 13.7539 158.877 14.3359V17.3652C159.201 17.9434 159.697 18.2324 160.365 18.2324C160.885 18.2324 161.297 18.0273 161.602 17.6172C161.91 17.2031 162.064 16.5898 162.064 15.7773ZM168.445 19C168.383 18.875 168.332 18.6523 168.293 18.332C167.789 18.8555 167.188 19.1172 166.488 19.1172C165.863 19.1172 165.35 18.9414 164.947 18.5898C164.549 18.2344 164.35 17.7852 164.35 17.2422C164.35 16.582 164.6 16.0703 165.1 15.707C165.604 15.3398 166.311 15.1562 167.221 15.1562H168.275V14.6582C168.275 14.2793 168.162 13.9785 167.936 13.7559C167.709 13.5293 167.375 13.416 166.934 13.416C166.547 13.416 166.223 13.5137 165.961 13.709C165.699 13.9043 165.568 14.1406 165.568 14.418H164.479C164.479 14.1016 164.59 13.7969 164.812 13.5039C165.039 13.207 165.344 12.9727 165.727 12.8008C166.113 12.6289 166.537 12.543 166.998 12.543C167.729 12.543 168.301 12.7266 168.715 13.0938C169.129 13.457 169.344 13.959 169.359 14.5996V17.5176C169.359 18.0996 169.434 18.5625 169.582 18.9062V19H168.445ZM166.646 18.1738C166.986 18.1738 167.309 18.0859 167.613 17.9102C167.918 17.7344 168.139 17.5059 168.275 17.2246V15.9238H167.426C166.098 15.9238 165.434 16.3125 165.434 17.0898C165.434 17.4297 165.547 17.6953 165.773 17.8867C166 18.0781 166.291 18.1738 166.646 18.1738ZM171.082 18.4316C171.082 18.2441 171.137 18.0879 171.246 17.9629C171.359 17.8379 171.527 17.7754 171.75 17.7754C171.973 17.7754 172.141 17.8379 172.254 17.9629C172.371 18.0879 172.43 18.2441 172.43 18.4316C172.43 18.6113 172.371 18.7617 172.254 18.8828C172.141 19.0039 171.973 19.0645 171.75 19.0645C171.527 19.0645 171.359 19.0039 171.246 18.8828C171.137 18.7617 171.082 18.6113 171.082 18.4316ZM174.246 18.4316C174.246 18.2441 174.301 18.0879 174.41 17.9629C174.523 17.8379 174.691 17.7754 174.914 17.7754C175.137 17.7754 175.305 17.8379 175.418 17.9629C175.535 18.0879 175.594 18.2441 175.594 18.4316C175.594 18.6113 175.535 18.7617 175.418 18.8828C175.305 19.0039 175.137 19.0645 174.914 19.0645C174.691 19.0645 174.523 19.0039 174.41 18.8828C174.301 18.7617 174.246 18.6113 174.246 18.4316ZM177.41 18.4316C177.41 18.2441 177.465 18.0879 177.574 17.9629C177.688 17.8379 177.855 17.7754 178.078 17.7754C178.301 17.7754 178.469 17.8379 178.582 17.9629C178.699 18.0879 178.758 18.2441 178.758 18.4316C178.758 18.6113 178.699 18.7617 178.582 18.8828C178.469 19.0039 178.301 19.0645 178.078 19.0645C177.855 19.0645 177.688 19.0039 177.574 18.8828C177.465 18.7617 177.41 18.6113 177.41 18.4316ZM188.162 19V15.6777H186.193L184.43 19H183.229L185.209 15.3672C184.107 14.9336 183.557 14.1582 183.557 13.041C183.557 12.2285 183.822 11.5977 184.354 11.1484C184.889 10.6953 185.631 10.4688 186.58 10.4688H189.293V19H188.162ZM184.682 13.041C184.682 13.5566 184.842 13.9707 185.162 14.2832C185.486 14.5957 185.936 14.7539 186.51 14.7578H188.162V11.3945H186.562C185.953 11.3945 185.486 11.5391 185.162 11.8281C184.842 12.1172 184.682 12.5215 184.682 13.041ZM193.143 16.2988H192.352V19H191.262V12.6602H192.352V15.3438H193.061L195.193 12.6602H196.506L193.998 15.707L196.717 19H195.34L193.143 16.2988ZM201.562 19C201.5 18.875 201.449 18.6523 201.41 18.332C200.906 18.8555 200.305 19.1172 199.605 19.1172C198.98 19.1172 198.467 18.9414 198.064 18.5898C197.666 18.2344 197.467 17.7852 197.467 17.2422C197.467 16.582 197.717 16.0703 198.217 15.707C198.721 15.3398 199.428 15.1562 200.338 15.1562H201.393V14.6582C201.393 14.2793 201.279 13.9785 201.053 13.7559C200.826 13.5293 200.492 13.416 200.051 13.416C199.664 13.416 199.34 13.5137 199.078 13.709C198.816 13.9043 198.686 14.1406 198.686 14.418H197.596C197.596 14.1016 197.707 13.7969 197.93 13.5039C198.156 13.207 198.461 12.9727 198.844 12.8008C199.23 12.6289 199.654 12.543 200.115 12.543C200.846 12.543 201.418 12.7266 201.832 13.0938C202.246 13.457 202.461 13.959 202.477 14.5996V17.5176C202.477 18.0996 202.551 18.5625 202.699 18.9062V19H201.562ZM199.764 18.1738C200.104 18.1738 200.426 18.0859 200.73 17.9102C201.035 17.7344 201.256 17.5059 201.393 17.2246V15.9238H200.543C199.215 15.9238 198.551 16.3125 198.551 17.0898C198.551 17.4297 198.664 17.6953 198.891 17.8867C199.117 18.0781 199.408 18.1738 199.764 18.1738ZM209.695 18.2324C210.082 18.2324 210.42 18.1152 210.709 17.8809C210.998 17.6465 211.158 17.3535 211.189 17.002H212.215C212.195 17.3652 212.07 17.7109 211.84 18.0391C211.609 18.3672 211.301 18.6289 210.914 18.8242C210.531 19.0195 210.125 19.1172 209.695 19.1172C208.832 19.1172 208.145 18.8301 207.633 18.2559C207.125 17.6777 206.871 16.8887 206.871 15.8887V15.707C206.871 15.0898 206.984 14.541 207.211 14.0605C207.438 13.5801 207.762 13.207 208.184 12.9414C208.609 12.6758 209.111 12.543 209.689 12.543C210.4 12.543 210.99 12.7559 211.459 13.1816C211.932 13.6074 212.184 14.1602 212.215 14.8398H211.189C211.158 14.4297 211.002 14.0938 210.721 13.832C210.443 13.5664 210.1 13.4336 209.689 13.4336C209.139 13.4336 208.711 13.6328 208.406 14.0312C208.105 14.4258 207.955 14.998 207.955 15.748V15.9531C207.955 16.6836 208.105 17.2461 208.406 17.6406C208.707 18.0352 209.137 18.2324 209.695 18.2324ZM213.146 15.7715C213.146 15.1504 213.268 14.5918 213.51 14.0957C213.756 13.5996 214.096 13.2168 214.529 12.9473C214.967 12.6777 215.465 12.543 216.023 12.543C216.887 12.543 217.584 12.8418 218.115 13.4395C218.65 14.0371 218.918 14.832 218.918 15.8242V15.9004C218.918 16.5176 218.799 17.0723 218.561 17.5645C218.326 18.0527 217.988 18.4336 217.547 18.707C217.109 18.9805 216.605 19.1172 216.035 19.1172C215.176 19.1172 214.479 18.8184 213.943 18.2207C213.412 17.623 213.146 16.832 213.146 15.8477V15.7715ZM214.236 15.9004C214.236 16.6035 214.398 17.168 214.723 17.5938C215.051 18.0195 215.488 18.2324 216.035 18.2324C216.586 18.2324 217.023 18.0176 217.348 17.5879C217.672 17.1543 217.834 16.5488 217.834 15.7715C217.834 15.0762 217.668 14.5137 217.336 14.084C217.008 13.6504 216.57 13.4336 216.023 13.4336C215.488 13.4336 215.057 13.6465 214.729 14.0723C214.4 14.498 214.236 15.1074 214.236 15.9004ZM223.061 13.0234C223.857 13.0234 224.494 13.291 224.971 13.8262C225.451 14.3574 225.691 15.0586 225.691 15.9297V16.0293C225.691 16.627 225.576 17.1621 225.346 17.6348C225.115 18.1035 224.783 18.4688 224.35 18.7305C223.92 18.9883 223.424 19.1172 222.861 19.1172C222.01 19.1172 221.324 18.834 220.805 18.2676C220.285 17.6973 220.025 16.9336 220.025 15.9766V15.4492C220.025 14.1172 220.271 13.0586 220.764 12.2734C221.26 11.4883 221.99 11.0098 222.955 10.8379C223.502 10.7402 223.871 10.6211 224.062 10.4805C224.254 10.3398 224.35 10.1465 224.35 9.90039H225.24C225.24 10.3887 225.129 10.7695 224.906 11.043C224.688 11.3164 224.336 11.5098 223.852 11.623L223.043 11.8047C222.398 11.957 221.914 12.2148 221.59 12.5781C221.27 12.9375 221.061 13.418 220.963 14.0195C221.537 13.3555 222.236 13.0234 223.061 13.0234ZM222.85 13.9141C222.318 13.9141 221.896 14.0938 221.584 14.4531C221.271 14.8086 221.115 15.3027 221.115 15.9355V16.0293C221.115 16.709 221.271 17.248 221.584 17.6465C221.9 18.041 222.326 18.2383 222.861 18.2383C223.4 18.2383 223.826 18.0391 224.139 17.6406C224.451 17.2422 224.607 16.6602 224.607 15.8945C224.607 15.2969 224.449 14.8184 224.133 14.459C223.82 14.0957 223.393 13.9141 222.85 13.9141ZM230.824 19C230.762 18.875 230.711 18.6523 230.672 18.332C230.168 18.8555 229.566 19.1172 228.867 19.1172C228.242 19.1172 227.729 18.9414 227.326 18.5898C226.928 18.2344 226.729 17.7852 226.729 17.2422C226.729 16.582 226.979 16.0703 227.479 15.707C227.982 15.3398 228.689 15.1562 229.6 15.1562H230.654V14.6582C230.654 14.2793 230.541 13.9785 230.314 13.7559C230.088 13.5293 229.754 13.416 229.312 13.416C228.926 13.416 228.602 13.5137 228.34 13.709C228.078 13.9043 227.947 14.1406 227.947 14.418H226.857C226.857 14.1016 226.969 13.7969 227.191 13.5039C227.418 13.207 227.723 12.9727 228.105 12.8008C228.492 12.6289 228.916 12.543 229.377 12.543C230.107 12.543 230.68 12.7266 231.094 13.0938C231.508 13.457 231.723 13.959 231.738 14.5996V17.5176C231.738 18.0996 231.812 18.5625 231.961 18.9062V19H230.824ZM229.025 18.1738C229.365 18.1738 229.688 18.0859 229.992 17.9102C230.297 17.7344 230.518 17.5059 230.654 17.2246V15.9238H229.805C228.477 15.9238 227.812 16.3125 227.812 17.0898C227.812 17.4297 227.926 17.6953 228.152 17.8867C228.379 18.0781 228.67 18.1738 229.025 18.1738ZM238.225 19H237.135V16.7031C236.658 16.8281 236.17 16.8906 235.67 16.8906C234.877 16.8906 234.271 16.6875 233.854 16.2812C233.439 15.875 233.229 15.2969 233.221 14.5469V12.6543H234.305V14.582C234.324 15.5273 234.779 16 235.67 16C236.17 16 236.658 15.9375 237.135 15.8125V12.6602H238.225V19ZM241.939 16.2988H241.148V19H240.059V12.6602H241.148V15.3438H241.857L243.99 12.6602H245.303L242.795 15.707L245.514 19H244.137L241.939 16.2988ZM250.359 19C250.297 18.875 250.246 18.6523 250.207 18.332C249.703 18.8555 249.102 19.1172 248.402 19.1172C247.777 19.1172 247.264 18.9414 246.861 18.5898C246.463 18.2344 246.264 17.7852 246.264 17.2422C246.264 16.582 246.514 16.0703 247.014 15.707C247.518 15.3398 248.225 15.1562 249.135 15.1562H250.189V14.6582C250.189 14.2793 250.076 13.9785 249.85 13.7559C249.623 13.5293 249.289 13.416 248.848 13.416C248.461 13.416 248.137 13.5137 247.875 13.709C247.613 13.9043 247.482 14.1406 247.482 14.418H246.393C246.393 14.1016 246.504 13.7969 246.727 13.5039C246.953 13.207 247.258 12.9727 247.641 12.8008C248.027 12.6289 248.451 12.543 248.912 12.543C249.643 12.543 250.215 12.7266 250.629 13.0938C251.043 13.457 251.258 13.959 251.273 14.5996V17.5176C251.273 18.0996 251.348 18.5625 251.496 18.9062V19H250.359ZM248.561 18.1738C248.9 18.1738 249.223 18.0859 249.527 17.9102C249.832 17.7344 250.053 17.5059 250.189 17.2246V15.9238H249.34C248.012 15.9238 247.348 16.3125 247.348 17.0898C247.348 17.4297 247.461 17.6953 247.688 17.8867C247.914 18.0781 248.205 18.1738 248.561 18.1738ZM259.6 17.5645L261.756 12.6602H263.109V19H262.025V14.3887L259.975 19H259.225L257.133 14.2891V19H256.049V12.6602H257.455L259.6 17.5645ZM267.486 19.1172C266.627 19.1172 265.928 18.8359 265.389 18.2734C264.85 17.707 264.58 16.9512 264.58 16.0059V15.8066C264.58 15.1777 264.699 14.6172 264.938 14.125C265.18 13.6289 265.516 13.2422 265.945 12.9648C266.379 12.6836 266.848 12.543 267.352 12.543C268.176 12.543 268.816 12.8145 269.273 13.3574C269.73 13.9004 269.959 14.6777 269.959 15.6895V16.1406H265.664C265.68 16.7656 265.861 17.2715 266.209 17.6582C266.561 18.041 267.006 18.2324 267.545 18.2324C267.928 18.2324 268.252 18.1543 268.518 17.998C268.783 17.8418 269.016 17.6348 269.215 17.377L269.877 17.8926C269.346 18.709 268.549 19.1172 267.486 19.1172ZM267.352 13.4336C266.914 13.4336 266.547 13.5938 266.25 13.9141C265.953 14.2305 265.77 14.6758 265.699 15.25H268.875V15.168C268.844 14.6172 268.695 14.1914 268.43 13.8906C268.164 13.5859 267.805 13.4336 267.352 13.4336ZM276.398 19H275.314V16.293H272.402V19H271.312V12.6602H272.402V15.4082H275.314V12.6602H276.398V19ZM279.322 19H278.238V12.6602H279.322V19ZM278.15 10.9785C278.15 10.8027 278.203 10.6543 278.309 10.5332C278.418 10.4121 278.578 10.3516 278.789 10.3516C279 10.3516 279.16 10.4121 279.27 10.5332C279.379 10.6543 279.434 10.8027 279.434 10.9785C279.434 11.1543 279.379 11.3008 279.27 11.418C279.16 11.5352 279 11.5938 278.789 11.5938C278.578 11.5938 278.418 11.5352 278.309 11.418C278.203 11.3008 278.15 11.1543 278.15 10.9785ZM289.225 19H288.141V13.5566H285.223V19H284.133V12.6602H289.225V19ZM292.143 19H291.059V12.6602H292.143V19ZM290.971 10.9785C290.971 10.8027 291.023 10.6543 291.129 10.5332C291.238 10.4121 291.398 10.3516 291.609 10.3516C291.82 10.3516 291.98 10.4121 292.09 10.5332C292.199 10.6543 292.254 10.8027 292.254 10.9785C292.254 11.1543 292.199 11.3008 292.09 11.418C291.98 11.5352 291.82 11.5938 291.609 11.5938C291.398 11.5938 291.238 11.5352 291.129 11.418C291.023 11.3008 290.971 11.1543 290.971 10.9785ZM293.83 18.1152L294.205 17.6523C294.627 17.1055 294.867 16.2852 294.926 15.1914L295.025 12.6602H299.109V18.1152H299.924V20.8633H298.84V19H294.416V20.8633H293.332L293.338 18.1152H293.83ZM295.113 18.1152H298.025V13.6621H296.074L296.01 15.1738C295.943 16.4355 295.645 17.416 295.113 18.1152ZM302.303 19H301.219V12.6602H302.303V19ZM301.131 10.9785C301.131 10.8027 301.184 10.6543 301.289 10.5332C301.398 10.4121 301.559 10.3516 301.77 10.3516C301.98 10.3516 302.141 10.4121 302.25 10.5332C302.359 10.6543 302.414 10.8027 302.414 10.9785C302.414 11.1543 302.359 11.3008 302.25 11.418C302.141 11.5352 301.98 11.5938 301.77 11.5938C301.559 11.5938 301.398 11.5352 301.289 11.418C301.184 11.3008 301.131 11.1543 301.131 10.9785ZM308.145 12.6602H309.229V19H308.145V14.377L305.221 19H304.137V12.6602H305.221V17.2891L308.145 12.6602ZM308.438 10.3516C308.438 10.8242 308.275 11.2051 307.951 11.4941C307.631 11.7793 307.209 11.9219 306.686 11.9219C306.162 11.9219 305.738 11.7773 305.414 11.4883C305.09 11.1992 304.928 10.8203 304.928 10.3516H305.812C305.812 10.625 305.887 10.8398 306.035 10.9961C306.184 11.1484 306.4 11.2246 306.686 11.2246C306.959 11.2246 307.172 11.1484 307.324 10.9961C307.48 10.8438 307.559 10.6289 307.559 10.3516H308.438ZM310.916 18.1152L311.291 17.6523C311.713 17.1055 311.953 16.2852 312.012 15.1914L312.111 12.6602H316.195V18.1152H317.01V20.8633H315.926V19H311.502V20.8633H310.418L310.424 18.1152H310.916ZM312.199 18.1152H315.111V13.6621H313.16L313.096 15.1738C313.029 16.4355 312.73 17.416 312.199 18.1152ZM320.842 19.1172C319.982 19.1172 319.283 18.8359 318.744 18.2734C318.205 17.707 317.936 16.9512 317.936 16.0059V15.8066C317.936 15.1777 318.055 14.6172 318.293 14.125C318.535 13.6289 318.871 13.2422 319.301 12.9648C319.734 12.6836 320.203 12.543 320.707 12.543C321.531 12.543 322.172 12.8145 322.629 13.3574C323.086 13.9004 323.314 14.6777 323.314 15.6895V16.1406H319.02C319.035 16.7656 319.217 17.2715 319.564 17.6582C319.916 18.041 320.361 18.2324 320.9 18.2324C321.283 18.2324 321.607 18.1543 321.873 17.998C322.139 17.8418 322.371 17.6348 322.57 17.377L323.232 17.8926C322.701 18.709 321.904 19.1172 320.842 19.1172ZM320.707 13.4336C320.27 13.4336 319.902 13.5938 319.605 13.9141C319.309 14.2305 319.125 14.6758 319.055 15.25H322.23V15.168C322.199 14.6172 322.051 14.1914 321.785 13.8906C321.52 13.5859 321.16 13.4336 320.707 13.4336ZM325.846 16.5977C325.854 16.1328 325.906 15.7656 326.004 15.4961C326.102 15.2266 326.301 14.9277 326.602 14.5996L327.369 13.8086C327.697 13.4375 327.861 13.0391 327.861 12.6133C327.861 12.2031 327.754 11.8828 327.539 11.6523C327.324 11.418 327.012 11.3008 326.602 11.3008C326.203 11.3008 325.883 11.4062 325.641 11.6172C325.398 11.8281 325.277 12.1113 325.277 12.4668H324.193C324.201 11.834 324.426 11.3242 324.867 10.9375C325.312 10.5469 325.891 10.3516 326.602 10.3516C327.34 10.3516 327.914 10.5508 328.324 10.9492C328.738 11.3438 328.945 11.8867 328.945 12.5781C328.945 13.2617 328.629 13.9355 327.996 14.5996L327.357 15.2324C327.072 15.5488 326.93 16.0039 326.93 16.5977H325.846ZM325.799 18.4551C325.799 18.2793 325.852 18.1328 325.957 18.0156C326.066 17.8945 326.227 17.834 326.438 17.834C326.648 17.834 326.809 17.8945 326.918 18.0156C327.027 18.1328 327.082 18.2793 327.082 18.4551C327.082 18.6309 327.027 18.7773 326.918 18.8945C326.809 19.0078 326.648 19.0645 326.438 19.0645C326.227 19.0645 326.066 19.0078 325.957 18.8945C325.852 18.7773 325.799 18.6309 325.799 18.4551Z" fill="black"/>
<rect x="147" y="45" width="268" height="50" rx="15" fill="#E6FAFF"/>
<path d="M169.402 60.8613L171.788 57.0469H173.333L170.188 61.9824L173.408 67H171.85L169.402 63.1172L166.941 67H165.39L168.616 61.9824L165.465 57.0469H167.003L169.402 60.8613ZM174.249 63.2334C174.249 62.5088 174.39 61.8571 174.673 61.2783C174.96 60.6995 175.356 60.2529 175.862 59.9385C176.373 59.624 176.954 59.4668 177.605 59.4668C178.613 59.4668 179.426 59.8154 180.046 60.5127C180.67 61.21 180.982 62.1374 180.982 63.2949V63.3838C180.982 64.1038 180.843 64.751 180.565 65.3252C180.292 65.8949 179.898 66.3392 179.383 66.6582C178.872 66.9772 178.285 67.1367 177.619 67.1367C176.617 67.1367 175.803 66.7881 175.179 66.0908C174.559 65.3936 174.249 64.4707 174.249 63.3223V63.2334ZM175.521 63.3838C175.521 64.2041 175.71 64.8626 176.088 65.3594C176.471 65.8561 176.981 66.1045 177.619 66.1045C178.262 66.1045 178.772 65.8538 179.15 65.3525C179.529 64.8467 179.718 64.1403 179.718 63.2334C179.718 62.4222 179.524 61.766 179.137 61.2646C178.754 60.7588 178.243 60.5059 177.605 60.5059C176.981 60.5059 176.478 60.7542 176.095 61.251C175.712 61.7477 175.521 62.4587 175.521 63.3838ZM188.153 67H186.882V64.3203C186.326 64.4661 185.756 64.5391 185.173 64.5391C184.248 64.5391 183.541 64.3021 183.054 63.8281C182.571 63.3542 182.325 62.6797 182.315 61.8047V59.5967H183.58V61.8457C183.603 62.9486 184.134 63.5 185.173 63.5C185.756 63.5 186.326 63.4271 186.882 63.2812V59.6035H188.153V67ZM192.604 65.1475L194.326 59.6035H195.68L192.706 68.1416C192.246 69.3721 191.514 69.9873 190.512 69.9873L190.272 69.9668L189.801 69.8779V68.8525L190.143 68.8799C190.571 68.8799 190.904 68.7933 191.141 68.6201C191.382 68.4469 191.58 68.1302 191.735 67.6699L192.016 66.918L189.377 59.6035H190.758L192.604 65.1475ZM203.254 66.1045C203.705 66.1045 204.099 65.9678 204.437 65.6943C204.774 65.4209 204.961 65.0791 204.997 64.6689H206.193C206.171 65.0928 206.025 65.4961 205.756 65.8789C205.487 66.2617 205.127 66.5671 204.676 66.7949C204.229 67.0228 203.755 67.1367 203.254 67.1367C202.247 67.1367 201.445 66.8018 200.848 66.1318C200.255 65.4574 199.959 64.5368 199.959 63.3701V63.1582C199.959 62.4382 200.091 61.7979 200.355 61.2373C200.62 60.6768 200.998 60.2415 201.49 59.9316C201.987 59.6217 202.573 59.4668 203.247 59.4668C204.076 59.4668 204.765 59.7152 205.312 60.2119C205.863 60.7087 206.157 61.3535 206.193 62.1465H204.997C204.961 61.668 204.778 61.276 204.45 60.9707C204.127 60.6608 203.726 60.5059 203.247 60.5059C202.604 60.5059 202.105 60.7383 201.75 61.2031C201.399 61.6634 201.224 62.3311 201.224 63.2061V63.4453C201.224 64.2975 201.399 64.9538 201.75 65.4141C202.101 65.8743 202.602 66.1045 203.254 66.1045ZM207.28 63.2334C207.28 62.5088 207.422 61.8571 207.704 61.2783C207.991 60.6995 208.388 60.2529 208.894 59.9385C209.404 59.624 209.985 59.4668 210.637 59.4668C211.644 59.4668 212.457 59.8154 213.077 60.5127C213.701 61.21 214.014 62.1374 214.014 63.2949V63.3838C214.014 64.1038 213.875 64.751 213.597 65.3252C213.323 65.8949 212.929 66.3392 212.414 66.6582C211.904 66.9772 211.316 67.1367 210.65 67.1367C209.648 67.1367 208.834 66.7881 208.21 66.0908C207.59 65.3936 207.28 64.4707 207.28 63.3223V63.2334ZM208.552 63.3838C208.552 64.2041 208.741 64.8626 209.119 65.3594C209.502 65.8561 210.012 66.1045 210.65 66.1045C211.293 66.1045 211.803 65.8538 212.182 65.3525C212.56 64.8467 212.749 64.1403 212.749 63.2334C212.749 62.4222 212.555 61.766 212.168 61.2646C211.785 60.7588 211.275 60.5059 210.637 60.5059C210.012 60.5059 209.509 60.7542 209.126 61.251C208.743 61.7477 208.552 62.4587 208.552 63.3838ZM218.847 60.0273C219.776 60.0273 220.519 60.3395 221.075 60.9639C221.636 61.5837 221.916 62.4017 221.916 63.418V63.5342C221.916 64.2314 221.782 64.8558 221.513 65.4072C221.244 65.9541 220.856 66.3802 220.351 66.6855C219.849 66.9863 219.271 67.1367 218.614 67.1367C217.621 67.1367 216.821 66.8063 216.215 66.1455C215.609 65.4801 215.306 64.5892 215.306 63.4727V62.8574C215.306 61.3034 215.593 60.0684 216.167 59.1523C216.746 58.2363 217.598 57.6781 218.724 57.4775C219.362 57.3636 219.792 57.2246 220.016 57.0605C220.239 56.8965 220.351 56.6709 220.351 56.3838H221.39C221.39 56.9535 221.26 57.3978 221 57.7168C220.745 58.0358 220.335 58.2614 219.77 58.3936L218.826 58.6055C218.074 58.7832 217.509 59.084 217.131 59.5078C216.757 59.9271 216.513 60.4876 216.399 61.1895C217.069 60.4147 217.885 60.0273 218.847 60.0273ZM218.601 61.0664C217.981 61.0664 217.489 61.276 217.124 61.6953C216.759 62.11 216.577 62.6865 216.577 63.4248V63.5342C216.577 64.3271 216.759 64.9561 217.124 65.4209C217.493 65.8812 217.99 66.1113 218.614 66.1113C219.243 66.1113 219.74 65.8789 220.104 65.4141C220.469 64.9492 220.651 64.2702 220.651 63.377C220.651 62.6797 220.467 62.1214 220.098 61.7021C219.733 61.2783 219.234 61.0664 218.601 61.0664ZM227.904 67C227.831 66.8542 227.772 66.5944 227.727 66.2207C227.139 66.8314 226.437 67.1367 225.621 67.1367C224.892 67.1367 224.293 66.9316 223.823 66.5215C223.358 66.1068 223.126 65.5827 223.126 64.9492C223.126 64.179 223.418 63.582 224.001 63.1582C224.589 62.7298 225.414 62.5156 226.476 62.5156H227.706V61.9346C227.706 61.4925 227.574 61.1416 227.31 60.8818C227.045 60.6175 226.656 60.4854 226.141 60.4854C225.689 60.4854 225.311 60.5993 225.006 60.8271C224.701 61.055 224.548 61.3307 224.548 61.6543H223.276C223.276 61.2852 223.406 60.9297 223.666 60.5879C223.93 60.2415 224.286 59.9681 224.732 59.7676C225.184 59.5671 225.678 59.4668 226.216 59.4668C227.068 59.4668 227.736 59.681 228.219 60.1094C228.702 60.5332 228.952 61.1188 228.971 61.8662V65.2705C228.971 65.9495 229.057 66.4896 229.23 66.8906V67H227.904ZM225.806 66.0361C226.202 66.0361 226.578 65.9336 226.934 65.7285C227.289 65.5234 227.547 65.2568 227.706 64.9287V63.4111H226.715C225.165 63.4111 224.391 63.8646 224.391 64.7715C224.391 65.168 224.523 65.4779 224.787 65.7012C225.051 65.9245 225.391 66.0361 225.806 66.0361ZM236.538 67H235.267V64.3203C234.711 64.4661 234.141 64.5391 233.558 64.5391C232.632 64.5391 231.926 64.3021 231.438 63.8281C230.955 63.3542 230.709 62.6797 230.7 61.8047V59.5967H231.965V61.8457C231.988 62.9486 232.519 63.5 233.558 63.5C234.141 63.5 234.711 63.4271 235.267 63.2812V59.6035H236.538V67ZM240.872 63.8486H239.949V67H238.678V59.6035H239.949V62.7344H240.776L243.265 59.6035H244.796L241.87 63.1582L245.042 67H243.436L240.872 63.8486ZM248.549 65.1475L250.271 59.6035H251.625L248.651 68.1416C248.191 69.3721 247.46 69.9873 246.457 69.9873L246.218 69.9668L245.746 69.8779V68.8525L246.088 68.8799C246.516 68.8799 246.849 68.7933 247.086 68.6201C247.327 68.4469 247.526 68.1302 247.681 67.6699L247.961 66.918L245.322 59.6035H246.703L248.549 65.1475ZM251.98 68.9824L251.263 68.4902C251.691 67.8932 251.914 67.278 251.933 66.6445V65.5029H253.17V66.4941C253.17 66.9544 253.056 67.4147 252.828 67.875C252.605 68.3353 252.322 68.7044 251.98 68.9824ZM262.809 67C262.736 66.8542 262.676 66.5944 262.631 66.2207C262.043 66.8314 261.341 67.1367 260.525 67.1367C259.796 67.1367 259.197 66.9316 258.728 66.5215C258.263 66.1068 258.03 65.5827 258.03 64.9492C258.03 64.179 258.322 63.582 258.905 63.1582C259.493 62.7298 260.318 62.5156 261.38 62.5156H262.61V61.9346C262.61 61.4925 262.478 61.1416 262.214 60.8818C261.95 60.6175 261.56 60.4854 261.045 60.4854C260.594 60.4854 260.215 60.5993 259.91 60.8271C259.605 61.055 259.452 61.3307 259.452 61.6543H258.181C258.181 61.2852 258.311 60.9297 258.57 60.5879C258.835 60.2415 259.19 59.9681 259.637 59.7676C260.088 59.5671 260.582 59.4668 261.12 59.4668C261.972 59.4668 262.64 59.681 263.123 60.1094C263.606 60.5332 263.857 61.1188 263.875 61.8662V65.2705C263.875 65.9495 263.962 66.4896 264.135 66.8906V67H262.809ZM260.71 66.0361C261.106 66.0361 261.482 65.9336 261.838 65.7285C262.193 65.5234 262.451 65.2568 262.61 64.9287V63.4111H261.619C260.07 63.4111 259.295 63.8646 259.295 64.7715C259.295 65.168 259.427 65.4779 259.691 65.7012C259.956 65.9245 260.295 66.0361 260.71 66.0361ZM271.921 59.6035V67H270.649V60.6494H268.134L267.983 63.418C267.901 64.6895 267.687 65.5986 267.341 66.1455C266.999 66.6924 266.454 66.9772 265.707 67H265.201V65.8857L265.563 65.8584C265.974 65.8128 266.268 65.5758 266.445 65.1475C266.623 64.7191 266.737 63.9261 266.787 62.7686L266.924 59.6035H271.921ZM277.021 67.1367C276.018 67.1367 275.202 66.8086 274.573 66.1523C273.944 65.4915 273.63 64.6097 273.63 63.5068V63.2744C273.63 62.5407 273.769 61.8867 274.047 61.3125C274.329 60.7337 274.721 60.2826 275.223 59.959C275.729 59.6309 276.275 59.4668 276.863 59.4668C277.825 59.4668 278.572 59.7835 279.105 60.417C279.639 61.0505 279.905 61.9574 279.905 63.1377V63.6641H274.895C274.913 64.3932 275.125 64.9834 275.53 65.4346C275.94 65.8812 276.46 66.1045 277.089 66.1045C277.535 66.1045 277.914 66.0133 278.224 65.8311C278.534 65.6488 278.805 65.4072 279.037 65.1064L279.81 65.708C279.19 66.6605 278.26 67.1367 277.021 67.1367ZM276.863 60.5059C276.353 60.5059 275.924 60.6927 275.578 61.0664C275.232 61.4355 275.018 61.9551 274.936 62.625H278.641V62.5293C278.604 61.8867 278.431 61.39 278.121 61.0391C277.811 60.6836 277.392 60.5059 276.863 60.5059ZM290.891 67H289.626V63.8418H286.229V67H284.957V59.6035H286.229V62.8096H289.626V59.6035H290.891V67ZM295.997 67.1367C294.994 67.1367 294.179 66.8086 293.55 66.1523C292.921 65.4915 292.606 64.6097 292.606 63.5068V63.2744C292.606 62.5407 292.745 61.8867 293.023 61.3125C293.306 60.7337 293.698 60.2826 294.199 59.959C294.705 59.6309 295.252 59.4668 295.84 59.4668C296.801 59.4668 297.549 59.7835 298.082 60.417C298.615 61.0505 298.882 61.9574 298.882 63.1377V63.6641H293.871C293.889 64.3932 294.101 64.9834 294.507 65.4346C294.917 65.8812 295.437 66.1045 296.065 66.1045C296.512 66.1045 296.89 66.0133 297.2 65.8311C297.51 65.6488 297.781 65.4072 298.014 65.1064L298.786 65.708C298.166 66.6605 297.237 67.1367 295.997 67.1367ZM295.84 60.5059C295.329 60.5059 294.901 60.6927 294.555 61.0664C294.208 61.4355 293.994 61.9551 293.912 62.625H297.617V62.5293C297.581 61.8867 297.408 61.39 297.098 61.0391C296.788 60.6836 296.368 60.5059 295.84 60.5059ZM307.892 61.627C307.892 61.2806 307.759 61.0072 307.495 60.8066C307.231 60.6016 306.868 60.499 306.408 60.499C305.962 60.499 305.588 60.6152 305.287 60.8477C304.991 61.0801 304.843 61.3535 304.843 61.668H303.585C303.585 61.0254 303.854 60.499 304.392 60.0889C304.929 59.6787 305.602 59.4736 306.408 59.4736C307.274 59.4736 307.949 59.6605 308.432 60.0342C308.915 60.4033 309.156 60.932 309.156 61.6201C309.156 61.9528 309.056 62.2581 308.855 62.5361C308.655 62.8141 308.37 63.0352 308.001 63.1992C308.862 63.4909 309.293 64.0651 309.293 64.9219C309.293 65.6009 309.031 66.1387 308.507 66.5352C307.983 66.9316 307.283 67.1299 306.408 67.1299C305.556 67.1299 304.852 66.9225 304.296 66.5078C303.744 66.0885 303.469 65.5234 303.469 64.8125H304.727C304.727 65.1725 304.886 65.4824 305.205 65.7422C305.529 65.9974 305.93 66.125 306.408 66.125C306.891 66.125 307.281 66.0133 307.577 65.79C307.873 65.5667 308.021 65.2773 308.021 64.9219C308.021 64.5072 307.896 64.2109 307.646 64.0332C307.399 63.8509 307.014 63.7598 306.49 63.7598H305.226V62.6934H306.6C307.461 62.6706 307.892 62.3151 307.892 61.627ZM316.977 67H315.712V63.8418H312.314V67H311.043V59.6035H312.314V62.8096H315.712V59.6035H316.977V67ZM323.58 67C323.507 66.8542 323.448 66.5944 323.402 66.2207C322.814 66.8314 322.113 67.1367 321.297 67.1367C320.568 67.1367 319.968 66.9316 319.499 66.5215C319.034 66.1068 318.802 65.5827 318.802 64.9492C318.802 64.179 319.093 63.582 319.677 63.1582C320.265 62.7298 321.09 62.5156 322.151 62.5156H323.382V61.9346C323.382 61.4925 323.25 61.1416 322.985 60.8818C322.721 60.6175 322.331 60.4854 321.816 60.4854C321.365 60.4854 320.987 60.5993 320.682 60.8271C320.376 61.055 320.224 61.3307 320.224 61.6543H318.952C318.952 61.2852 319.082 60.9297 319.342 60.5879C319.606 60.2415 319.962 59.9681 320.408 59.7676C320.859 59.5671 321.354 59.4668 321.892 59.4668C322.744 59.4668 323.411 59.681 323.895 60.1094C324.378 60.5332 324.628 61.1188 324.646 61.8662V65.2705C324.646 65.9495 324.733 66.4896 324.906 66.8906V67H323.58ZM321.481 66.0361C321.878 66.0361 322.254 65.9336 322.609 65.7285C322.965 65.5234 323.222 65.2568 323.382 64.9287V63.4111H322.391C320.841 63.4111 320.066 63.8646 320.066 64.7715C320.066 65.168 320.199 65.4779 320.463 65.7012C320.727 65.9245 321.067 66.0361 321.481 66.0361ZM328.01 62.7412H329.787C329.883 61.7568 330.231 60.9661 330.833 60.3691C331.439 59.7676 332.202 59.4668 333.123 59.4668C334.089 59.4668 334.88 59.7926 335.495 60.4443C336.11 61.096 336.443 61.9437 336.493 62.9873L336.5 63.3838C336.5 64.1038 336.359 64.7533 336.076 65.332C335.794 65.9108 335.397 66.3574 334.887 66.6719C334.376 66.9818 333.793 67.1367 333.137 67.1367C332.184 67.1367 331.405 66.8268 330.799 66.207C330.193 65.5827 329.853 64.7738 329.78 63.7803H328.01V67H326.745V59.6035H328.01V62.7412ZM331.031 63.3838C331.031 64.2041 331.22 64.8626 331.599 65.3594C331.981 65.8561 332.494 66.1045 333.137 66.1045C333.779 66.1045 334.287 65.8516 334.661 65.3457C335.039 64.8398 335.229 64.1357 335.229 63.2334C335.229 62.4268 335.037 61.7705 334.654 61.2646C334.271 60.7588 333.761 60.5059 333.123 60.5059C332.494 60.5059 331.988 60.7542 331.605 61.251C331.223 61.7477 331.031 62.4587 331.031 63.3838ZM347.116 67H345.845V64.3203C345.289 64.4661 344.719 64.5391 344.136 64.5391C343.211 64.5391 342.504 64.3021 342.017 63.8281C341.534 63.3542 341.287 62.6797 341.278 61.8047V59.5967H342.543V61.8457C342.566 62.9486 343.097 63.5 344.136 63.5C344.719 63.5 345.289 63.4271 345.845 63.2812V59.6035H347.116V67ZM353.932 59.6035H355.196V67H353.932V61.6064L350.521 67H349.256V59.6035H350.521V65.0039L353.932 59.6035ZM364.767 61.627C364.767 61.2806 364.634 61.0072 364.37 60.8066C364.106 60.6016 363.743 60.499 363.283 60.499C362.837 60.499 362.463 60.6152 362.162 60.8477C361.866 61.0801 361.718 61.3535 361.718 61.668H360.46C360.46 61.0254 360.729 60.499 361.267 60.0889C361.804 59.6787 362.477 59.4736 363.283 59.4736C364.149 59.4736 364.824 59.6605 365.307 60.0342C365.79 60.4033 366.031 60.932 366.031 61.6201C366.031 61.9528 365.931 62.2581 365.73 62.5361C365.53 62.8141 365.245 63.0352 364.876 63.1992C365.737 63.4909 366.168 64.0651 366.168 64.9219C366.168 65.6009 365.906 66.1387 365.382 66.5352C364.858 66.9316 364.158 67.1299 363.283 67.1299C362.431 67.1299 361.727 66.9225 361.171 66.5078C360.619 66.0885 360.344 65.5234 360.344 64.8125H361.602C361.602 65.1725 361.761 65.4824 362.08 65.7422C362.404 65.9974 362.805 66.125 363.283 66.125C363.766 66.125 364.156 66.0133 364.452 65.79C364.748 65.5667 364.896 65.2773 364.896 64.9219C364.896 64.5072 364.771 64.2109 364.521 64.0332C364.274 63.8509 363.889 63.7598 363.365 63.7598H362.101V62.6934H363.475C364.336 62.6706 364.767 62.3151 364.767 61.627ZM372.067 65.3252L374.583 59.6035H376.162V67H374.897V61.6201L372.505 67H371.63L369.189 61.5039V67H367.925V59.6035H369.565L372.067 65.3252ZM377.864 63.2334C377.864 62.5088 378.006 61.8571 378.288 61.2783C378.575 60.6995 378.972 60.2529 379.478 59.9385C379.988 59.624 380.569 59.4668 381.221 59.4668C382.228 59.4668 383.041 59.8154 383.661 60.5127C384.285 61.21 384.598 62.1374 384.598 63.2949V63.3838C384.598 64.1038 384.459 64.751 384.181 65.3252C383.907 65.8949 383.513 66.3392 382.998 66.6582C382.488 66.9772 381.9 67.1367 381.234 67.1367C380.232 67.1367 379.418 66.7881 378.794 66.0908C378.174 65.3936 377.864 64.4707 377.864 63.3223V63.2334ZM379.136 63.3838C379.136 64.2041 379.325 64.8626 379.703 65.3594C380.086 65.8561 380.596 66.1045 381.234 66.1045C381.877 66.1045 382.387 65.8538 382.766 65.3525C383.144 64.8467 383.333 64.1403 383.333 63.2334C383.333 62.4222 383.139 61.766 382.752 61.2646C382.369 60.7588 381.859 60.5059 381.221 60.5059C380.596 60.5059 380.093 60.7542 379.71 61.251C379.327 61.7477 379.136 62.4587 379.136 63.3838ZM391.933 63.7871H391.044V67H389.779V63.7871H388.891L386.819 67H385.22L387.865 63.1719L385.473 59.6035H387.004L388.911 62.666H389.779V59.6035H391.044V62.666H391.905L393.826 59.6035H395.357L392.958 63.1787L395.604 67H394.004L391.933 63.7871ZM399.172 65.1475L400.895 59.6035H402.248L399.274 68.1416C398.814 69.3721 398.083 69.9873 397.08 69.9873L396.841 69.9668L396.369 69.8779V68.8525L396.711 68.8799C397.139 68.8799 397.472 68.7933 397.709 68.6201C397.951 68.4469 398.149 68.1302 398.304 67.6699L398.584 66.918L395.945 59.6035H397.326L399.172 65.1475ZM172.007 83H170.742V76.6494H167.338V83H166.066V75.6035H172.007V83ZM180.285 79.3838C180.285 80.5094 180.028 81.4163 179.513 82.1045C178.998 82.7926 178.3 83.1367 177.421 83.1367C176.523 83.1367 175.817 82.8519 175.302 82.2822V85.8438H174.037V75.6035H175.192L175.254 76.4238C175.769 75.7858 176.484 75.4668 177.4 75.4668C178.289 75.4668 178.991 75.8018 179.506 76.4717C180.025 77.1416 180.285 78.0736 180.285 79.2676V79.3838ZM179.021 79.2402C179.021 78.4062 178.843 77.7477 178.487 77.2646C178.132 76.7816 177.644 76.54 177.024 76.54C176.259 76.54 175.685 76.8796 175.302 77.5586V81.0928C175.68 81.7673 176.259 82.1045 177.038 82.1045C177.644 82.1045 178.125 81.8652 178.48 81.3867C178.84 80.9036 179.021 80.1882 179.021 79.2402ZM186.465 83C186.392 82.8542 186.333 82.5944 186.287 82.2207C185.699 82.8314 184.997 83.1367 184.182 83.1367C183.452 83.1367 182.853 82.9316 182.384 82.5215C181.919 82.1068 181.687 81.5827 181.687 80.9492C181.687 80.179 181.978 79.582 182.562 79.1582C183.149 78.7298 183.974 78.5156 185.036 78.5156H186.267V77.9346C186.267 77.4925 186.134 77.1416 185.87 76.8818C185.606 76.6175 185.216 76.4854 184.701 76.4854C184.25 76.4854 183.872 76.5993 183.566 76.8271C183.261 77.055 183.108 77.3307 183.108 77.6543H181.837C181.837 77.2852 181.967 76.9297 182.227 76.5879C182.491 76.2415 182.846 75.9681 183.293 75.7676C183.744 75.5671 184.239 75.4668 184.776 75.4668C185.629 75.4668 186.296 75.681 186.779 76.1094C187.262 76.5332 187.513 77.1188 187.531 77.8662V81.2705C187.531 81.9495 187.618 82.4896 187.791 82.8906V83H186.465ZM184.366 82.0361C184.763 82.0361 185.139 81.9336 185.494 81.7285C185.85 81.5234 186.107 81.2568 186.267 80.9287V79.4111H185.275C183.726 79.4111 182.951 79.8646 182.951 80.7715C182.951 81.168 183.083 81.4779 183.348 81.7012C183.612 81.9245 183.951 82.0361 184.366 82.0361ZM189.63 83V75.6035H192.515C193.499 75.6035 194.253 75.7767 194.777 76.123C195.306 76.4648 195.57 76.9684 195.57 77.6338C195.57 77.9756 195.468 78.2855 195.263 78.5635C195.058 78.8369 194.755 79.0465 194.354 79.1924C194.8 79.2972 195.158 79.5023 195.427 79.8076C195.7 80.113 195.837 80.4775 195.837 80.9014C195.837 81.5804 195.586 82.0999 195.085 82.46C194.588 82.82 193.884 83 192.973 83H189.63ZM190.895 79.7529V81.9814H192.986C193.515 81.9814 193.909 81.8835 194.169 81.6875C194.433 81.4915 194.565 81.2158 194.565 80.8604C194.565 80.1221 194.023 79.7529 192.938 79.7529H190.895ZM190.895 78.7412H192.528C193.713 78.7412 194.306 78.3949 194.306 77.7021C194.306 77.0094 193.745 76.6517 192.624 76.6289H190.895V78.7412ZM202.297 75.6035H203.562V83H202.297V77.6064L198.886 83H197.621V75.6035H198.886V81.0039L202.297 75.6035ZM211.655 75.6035V83H210.384V76.6494H207.868L207.718 79.418C207.636 80.6895 207.422 81.5986 207.075 82.1455C206.733 82.6924 206.189 82.9772 205.441 83H204.936V81.8857L205.298 81.8584C205.708 81.8128 206.002 81.5758 206.18 81.1475C206.357 80.7191 206.471 79.9261 206.521 78.7686L206.658 75.6035H211.655ZM215.066 78.1533H216.987C217.826 78.1624 218.489 78.3812 218.977 78.8096C219.464 79.238 219.708 79.819 219.708 80.5527C219.708 81.291 219.457 81.8835 218.956 82.3301C218.455 82.7767 217.78 83 216.933 83H213.802V75.6035H215.066V78.1533ZM215.066 79.1855V81.9678H216.946C217.42 81.9678 217.787 81.847 218.047 81.6055C218.307 81.3594 218.437 81.0244 218.437 80.6006C218.437 80.1904 218.309 79.8555 218.054 79.5957C217.803 79.3314 217.45 79.1947 216.994 79.1855H215.066ZM227.33 83H226.065V79.8418H222.668V83H221.396V75.6035H222.668V78.8096H226.065V75.6035H227.33V83ZM229.032 79.2334C229.032 78.5088 229.174 77.8571 229.456 77.2783C229.743 76.6995 230.14 76.2529 230.646 75.9385C231.156 75.624 231.737 75.4668 232.389 75.4668C233.396 75.4668 234.209 75.8154 234.829 76.5127C235.453 77.21 235.766 78.1374 235.766 79.2949V79.3838C235.766 80.1038 235.627 80.751 235.349 81.3252C235.075 81.8949 234.681 82.3392 234.166 82.6582C233.656 82.9772 233.068 83.1367 232.402 83.1367C231.4 83.1367 230.586 82.7881 229.962 82.0908C229.342 81.3936 229.032 80.4707 229.032 79.3223V79.2334ZM230.304 79.3838C230.304 80.2041 230.493 80.8626 230.871 81.3594C231.254 81.8561 231.764 82.1045 232.402 82.1045C233.045 82.1045 233.555 81.8538 233.934 81.3525C234.312 80.8467 234.501 80.1403 234.501 79.2334C234.501 78.4222 234.307 77.766 233.92 77.2646C233.537 76.7588 233.027 76.5059 232.389 76.5059C231.764 76.5059 231.261 76.7542 230.878 77.251C230.495 77.7477 230.304 78.4587 230.304 79.3838ZM246.874 83H245.609V76.6494H242.205V83H240.934V75.6035H246.874V83ZM250.278 83H249.014V75.6035H250.278V83ZM248.911 73.6416C248.911 73.4365 248.973 73.2633 249.096 73.1221C249.223 72.9808 249.41 72.9102 249.656 72.9102C249.902 72.9102 250.089 72.9808 250.217 73.1221C250.344 73.2633 250.408 73.4365 250.408 73.6416C250.408 73.8467 250.344 74.0176 250.217 74.1543C250.089 74.291 249.902 74.3594 249.656 74.3594C249.41 74.3594 249.223 74.291 249.096 74.1543C248.973 74.0176 248.911 73.8467 248.911 73.6416ZM254.612 79.8486H253.689V83H252.418V75.6035H253.689V78.7344H254.517L257.005 75.6035H258.536L255.61 79.1582L258.782 83H257.176L254.612 79.8486ZM265.933 75.6035V83H264.661V76.6494H262.146L261.995 79.418C261.913 80.6895 261.699 81.5986 261.353 82.1455C261.011 82.6924 260.466 82.9772 259.719 83H259.213V81.8857L259.575 81.8584C259.985 81.8128 260.279 81.5758 260.457 81.1475C260.635 80.7191 260.749 79.9261 260.799 78.7686L260.936 75.6035H265.933ZM270.383 81.1475L272.105 75.6035H273.459L270.485 84.1416C270.025 85.3721 269.294 85.9873 268.291 85.9873L268.052 85.9668L267.58 85.8779V84.8525L267.922 84.8799C268.35 84.8799 268.683 84.7933 268.92 84.6201C269.161 84.4469 269.36 84.1302 269.515 83.6699L269.795 82.918L267.156 75.6035H268.537L270.383 81.1475ZM274.71 83V75.6035H277.595C278.579 75.6035 279.333 75.7767 279.857 76.123C280.386 76.4648 280.65 76.9684 280.65 77.6338C280.65 77.9756 280.548 78.2855 280.343 78.5635C280.138 78.8369 279.835 79.0465 279.434 79.1924C279.88 79.2972 280.238 79.5023 280.507 79.8076C280.78 80.113 280.917 80.4775 280.917 80.9014C280.917 81.5804 280.666 82.0999 280.165 82.46C279.668 82.82 278.964 83 278.053 83H274.71ZM275.975 79.7529V81.9814H278.066C278.595 81.9814 278.989 81.8835 279.249 81.6875C279.513 81.4915 279.646 81.2158 279.646 80.8604C279.646 80.1221 279.103 79.7529 278.019 79.7529H275.975ZM275.975 78.7412H277.608C278.793 78.7412 279.386 78.3949 279.386 77.7021C279.386 77.0094 278.825 76.6517 277.704 76.6289H275.975V78.7412ZM287.158 83C287.085 82.8542 287.026 82.5944 286.98 82.2207C286.393 82.8314 285.691 83.1367 284.875 83.1367C284.146 83.1367 283.547 82.9316 283.077 82.5215C282.612 82.1068 282.38 81.5827 282.38 80.9492C282.38 80.179 282.672 79.582 283.255 79.1582C283.843 78.7298 284.668 78.5156 285.729 78.5156H286.96V77.9346C286.96 77.4925 286.828 77.1416 286.563 76.8818C286.299 76.6175 285.91 76.4854 285.395 76.4854C284.943 76.4854 284.565 76.5993 284.26 76.8271C283.954 77.055 283.802 77.3307 283.802 77.6543H282.53C282.53 77.2852 282.66 76.9297 282.92 76.5879C283.184 76.2415 283.54 75.9681 283.986 75.7676C284.438 75.5671 284.932 75.4668 285.47 75.4668C286.322 75.4668 286.99 75.681 287.473 76.1094C287.956 76.5332 288.206 77.1188 288.225 77.8662V81.2705C288.225 81.9495 288.311 82.4896 288.484 82.8906V83H287.158ZM285.06 82.0361C285.456 82.0361 285.832 81.9336 286.188 81.7285C286.543 81.5234 286.8 81.2568 286.96 80.9287V79.4111H285.969C284.419 79.4111 283.645 79.8646 283.645 80.7715C283.645 81.168 283.777 81.4779 284.041 81.7012C284.305 81.9245 284.645 82.0361 285.06 82.0361ZM295.594 76.6289H293.112V83H291.848V76.6289H289.414V75.6035H295.594V76.6289ZM301.609 75.6035H302.874V83H301.609V77.6064L298.198 83H296.934V75.6035H298.198V81.0039L301.609 75.6035ZM307.871 82.1045C308.322 82.1045 308.716 81.9678 309.054 81.6943C309.391 81.4209 309.578 81.0791 309.614 80.6689H310.811C310.788 81.0928 310.642 81.4961 310.373 81.8789C310.104 82.2617 309.744 82.5671 309.293 82.7949C308.846 83.0228 308.372 83.1367 307.871 83.1367C306.864 83.1367 306.062 82.8018 305.465 82.1318C304.872 81.4574 304.576 80.5368 304.576 79.3701V79.1582C304.576 78.4382 304.708 77.7979 304.973 77.2373C305.237 76.6768 305.615 76.2415 306.107 75.9316C306.604 75.6217 307.19 75.4668 307.864 75.4668C308.694 75.4668 309.382 75.7152 309.929 76.2119C310.48 76.7087 310.774 77.3535 310.811 78.1465H309.614C309.578 77.668 309.396 77.276 309.067 76.9707C308.744 76.6608 308.343 76.5059 307.864 76.5059C307.222 76.5059 306.723 76.7383 306.367 77.2031C306.016 77.6634 305.841 78.3311 305.841 79.2061V79.4453C305.841 80.2975 306.016 80.9538 306.367 81.4141C306.718 81.8743 307.219 82.1045 307.871 82.1045ZM317.886 75.6035V83H316.614V80.1221H314.707L312.964 83H311.597L313.456 79.9307C312.982 79.7575 312.618 79.4909 312.362 79.1309C312.112 78.7663 311.986 78.3424 311.986 77.8594C311.986 77.1849 312.239 76.6426 312.745 76.2324C313.251 75.8177 313.928 75.6081 314.775 75.6035H317.886ZM313.258 77.873C313.258 78.2331 313.381 78.5247 313.627 78.748C313.873 78.9668 314.199 79.0785 314.604 79.083H316.614V76.6289H314.796C314.326 76.6289 313.953 76.7451 313.675 76.9775C313.397 77.2054 313.258 77.5039 313.258 77.873ZM319.943 82.3369C319.943 82.1182 320.007 81.9359 320.135 81.79C320.267 81.6442 320.463 81.5713 320.723 81.5713C320.982 81.5713 321.178 81.6442 321.311 81.79C321.447 81.9359 321.516 82.1182 321.516 82.3369C321.516 82.5465 321.447 82.722 321.311 82.8633C321.178 83.0046 320.982 83.0752 320.723 83.0752C320.463 83.0752 320.267 83.0046 320.135 82.8633C320.007 82.722 319.943 82.5465 319.943 82.3369ZM323.635 82.3369C323.635 82.1182 323.699 81.9359 323.826 81.79C323.958 81.6442 324.154 81.5713 324.414 81.5713C324.674 81.5713 324.87 81.6442 325.002 81.79C325.139 81.9359 325.207 82.1182 325.207 82.3369C325.207 82.5465 325.139 82.722 325.002 82.8633C324.87 83.0046 324.674 83.0752 324.414 83.0752C324.154 83.0752 323.958 83.0046 323.826 82.8633C323.699 82.722 323.635 82.5465 323.635 82.3369ZM327.326 82.3369C327.326 82.1182 327.39 81.9359 327.518 81.79C327.65 81.6442 327.846 81.5713 328.105 81.5713C328.365 81.5713 328.561 81.6442 328.693 81.79C328.83 81.9359 328.898 82.1182 328.898 82.3369C328.898 82.5465 328.83 82.722 328.693 82.8633C328.561 83.0046 328.365 83.0752 328.105 83.0752C327.846 83.0752 327.65 83.0046 327.518 82.8633C327.39 82.722 327.326 82.5465 327.326 82.3369Z" fill="black"/>
<rect x="26" y="110" width="379" height="68" rx="15" fill="#F8F8F8"/>
<path d="M44.4854 138V125.203H48.6689C50.0576 125.203 51.1006 125.49 51.7979 126.064C52.501 126.639 52.8525 127.488 52.8525 128.613C52.8525 129.211 52.6826 129.741 52.3428 130.204C52.0029 130.661 51.54 131.016 50.9541 131.268C51.6455 131.461 52.1904 131.83 52.5889 132.375C52.9932 132.914 53.1953 133.559 53.1953 134.309C53.1953 135.457 52.8232 136.359 52.0791 137.016C51.335 137.672 50.2832 138 48.9238 138H44.4854ZM46.1729 132.015V136.62H48.959C49.7441 136.62 50.3623 136.418 50.8135 136.014C51.2705 135.604 51.499 135.041 51.499 134.326C51.499 132.785 50.6611 132.015 48.9854 132.015H46.1729ZM46.1729 130.661H48.7217C49.46 130.661 50.0488 130.477 50.4883 130.107C50.9336 129.738 51.1562 129.237 51.1562 128.604C51.1562 127.901 50.9512 127.392 50.541 127.075C50.1309 126.753 49.5068 126.592 48.6689 126.592H46.1729V130.661ZM65.3857 135.847L68.6201 128.49H70.6504V138H69.0244V131.083L65.9482 138H64.8232L61.6855 130.934V138H60.0596V128.49H62.1689L65.3857 135.847ZM77.2158 138.176C75.9268 138.176 74.8779 137.754 74.0693 136.91C73.2607 136.061 72.8564 134.927 72.8564 133.509V133.21C72.8564 132.267 73.0352 131.426 73.3926 130.688C73.7559 129.943 74.2598 129.363 74.9043 128.947C75.5547 128.525 76.2578 128.314 77.0137 128.314C78.25 128.314 79.2109 128.722 79.8965 129.536C80.582 130.351 80.9248 131.517 80.9248 133.034V133.711H74.4824C74.5059 134.648 74.7783 135.407 75.2998 135.987C75.8271 136.562 76.4951 136.849 77.3037 136.849C77.8779 136.849 78.3643 136.731 78.7627 136.497C79.1611 136.263 79.5098 135.952 79.8086 135.565L80.8018 136.339C80.0049 137.563 78.8096 138.176 77.2158 138.176ZM77.0137 129.65C76.3574 129.65 75.8066 129.891 75.3613 130.371C74.916 130.846 74.6406 131.514 74.5352 132.375H79.2988V132.252C79.252 131.426 79.0293 130.787 78.6309 130.336C78.2324 129.879 77.6934 129.65 77.0137 129.65ZM90.584 138H88.958V133.939H84.5898V138H82.9551V128.49H84.5898V132.612H88.958V128.49H90.584V138ZM97.1494 138.176C95.8604 138.176 94.8115 137.754 94.0029 136.91C93.1943 136.061 92.79 134.927 92.79 133.509V133.21C92.79 132.267 92.9688 131.426 93.3262 130.688C93.6895 129.943 94.1934 129.363 94.8379 128.947C95.4883 128.525 96.1914 128.314 96.9473 128.314C98.1836 128.314 99.1445 128.722 99.8301 129.536C100.516 130.351 100.858 131.517 100.858 133.034V133.711H94.416C94.4395 134.648 94.7119 135.407 95.2334 135.987C95.7607 136.562 96.4287 136.849 97.2373 136.849C97.8115 136.849 98.2979 136.731 98.6963 136.497C99.0947 136.263 99.4434 135.952 99.7422 135.565L100.735 136.339C99.9385 137.563 98.7432 138.176 97.1494 138.176ZM96.9473 129.65C96.291 129.65 95.7402 129.891 95.2949 130.371C94.8496 130.846 94.5742 131.514 94.4688 132.375H99.2324V132.252C99.1855 131.426 98.9629 130.787 98.5645 130.336C98.166 129.879 97.627 129.65 96.9473 129.65ZM114.982 138H113.356V133.939H108.988V138H107.354V128.49H108.988V132.612H113.356V128.49H114.982V138ZM121.548 138.176C120.259 138.176 119.21 137.754 118.401 136.91C117.593 136.061 117.188 134.927 117.188 133.509V133.21C117.188 132.267 117.367 131.426 117.725 130.688C118.088 129.943 118.592 129.363 119.236 128.947C119.887 128.525 120.59 128.314 121.346 128.314C122.582 128.314 123.543 128.722 124.229 129.536C124.914 130.351 125.257 131.517 125.257 133.034V133.711H118.814C118.838 134.648 119.11 135.407 119.632 135.987C120.159 136.562 120.827 136.849 121.636 136.849C122.21 136.849 122.696 136.731 123.095 136.497C123.493 136.263 123.842 135.952 124.141 135.565L125.134 136.339C124.337 137.563 123.142 138.176 121.548 138.176ZM121.346 129.65C120.689 129.65 120.139 129.891 119.693 130.371C119.248 130.846 118.973 131.514 118.867 132.375H123.631V132.252C123.584 131.426 123.361 130.787 122.963 130.336C122.564 129.879 122.025 129.65 121.346 129.65ZM132.622 135.847L135.856 128.49H137.887V138H136.261V131.083L133.185 138H132.06L128.922 130.934V138H127.296V128.49H129.405L132.622 135.847ZM146.377 138C146.283 137.812 146.207 137.479 146.148 136.998C145.393 137.783 144.49 138.176 143.441 138.176C142.504 138.176 141.733 137.912 141.13 137.385C140.532 136.852 140.233 136.178 140.233 135.363C140.233 134.373 140.608 133.605 141.358 133.061C142.114 132.51 143.175 132.234 144.54 132.234H146.122V131.487C146.122 130.919 145.952 130.468 145.612 130.134C145.272 129.794 144.771 129.624 144.109 129.624C143.529 129.624 143.043 129.771 142.65 130.063C142.258 130.356 142.062 130.711 142.062 131.127H140.427C140.427 130.652 140.594 130.195 140.928 129.756C141.268 129.311 141.725 128.959 142.299 128.701C142.879 128.443 143.515 128.314 144.206 128.314C145.302 128.314 146.16 128.59 146.781 129.141C147.402 129.686 147.725 130.438 147.748 131.399V135.776C147.748 136.649 147.859 137.344 148.082 137.859V138H146.377ZM143.679 136.761C144.188 136.761 144.672 136.629 145.129 136.365C145.586 136.102 145.917 135.759 146.122 135.337V133.386H144.848C142.855 133.386 141.859 133.969 141.859 135.135C141.859 135.645 142.029 136.043 142.369 136.33C142.709 136.617 143.146 136.761 143.679 136.761ZM154.199 136.849C154.779 136.849 155.286 136.673 155.72 136.321C156.153 135.97 156.394 135.53 156.44 135.003H157.987C157.958 135.554 157.768 136.075 157.416 136.567C157.064 137.06 156.602 137.452 156.027 137.745C155.453 138.032 154.844 138.176 154.199 138.176C152.898 138.176 151.867 137.742 151.105 136.875C150.35 136.008 149.972 134.824 149.972 133.324V133.061C149.972 132.129 150.142 131.303 150.481 130.582C150.827 129.855 151.316 129.296 151.949 128.903C152.582 128.511 153.332 128.314 154.199 128.314C155.266 128.314 156.15 128.634 156.854 129.272C157.562 129.911 157.94 130.74 157.987 131.76H156.44C156.394 131.145 156.159 130.641 155.737 130.248C155.321 129.85 154.809 129.65 154.199 129.65C153.438 129.65 152.831 129.911 152.38 130.433C151.929 130.948 151.674 131.666 151.615 132.586H155.166V133.922H151.615C151.674 134.859 151.926 135.583 152.371 136.093C152.822 136.597 153.432 136.849 154.199 136.849ZM168.622 129.035C169.817 129.035 170.772 129.437 171.487 130.239C172.208 131.036 172.568 132.088 172.568 133.395V133.544C172.568 134.44 172.396 135.243 172.05 135.952C171.704 136.655 171.206 137.203 170.556 137.596C169.911 137.982 169.167 138.176 168.323 138.176C167.046 138.176 166.018 137.751 165.238 136.901C164.459 136.046 164.069 134.9 164.069 133.465V132.674C164.069 130.676 164.438 129.088 165.177 127.91C165.921 126.732 167.017 126.015 168.464 125.757C169.284 125.61 169.838 125.432 170.125 125.221C170.412 125.01 170.556 124.72 170.556 124.351H171.892C171.892 125.083 171.725 125.654 171.391 126.064C171.062 126.475 170.535 126.765 169.809 126.935L168.596 127.207C167.629 127.436 166.902 127.822 166.416 128.367C165.936 128.906 165.622 129.627 165.476 130.529C166.337 129.533 167.386 129.035 168.622 129.035ZM168.306 130.371C167.509 130.371 166.876 130.641 166.407 131.18C165.938 131.713 165.704 132.454 165.704 133.403V133.544C165.704 134.563 165.938 135.372 166.407 135.97C166.882 136.562 167.521 136.857 168.323 136.857C169.132 136.857 169.771 136.559 170.239 135.961C170.708 135.363 170.942 134.49 170.942 133.342C170.942 132.445 170.705 131.728 170.23 131.188C169.762 130.644 169.12 130.371 168.306 130.371ZM180.268 138C180.174 137.812 180.098 137.479 180.039 136.998C179.283 137.783 178.381 138.176 177.332 138.176C176.395 138.176 175.624 137.912 175.021 137.385C174.423 136.852 174.124 136.178 174.124 135.363C174.124 134.373 174.499 133.605 175.249 133.061C176.005 132.51 177.065 132.234 178.431 132.234H180.013V131.487C180.013 130.919 179.843 130.468 179.503 130.134C179.163 129.794 178.662 129.624 178 129.624C177.42 129.624 176.934 129.771 176.541 130.063C176.148 130.356 175.952 130.711 175.952 131.127H174.317C174.317 130.652 174.484 130.195 174.818 129.756C175.158 129.311 175.615 128.959 176.189 128.701C176.77 128.443 177.405 128.314 178.097 128.314C179.192 128.314 180.051 128.59 180.672 129.141C181.293 129.686 181.615 130.438 181.639 131.399V135.776C181.639 136.649 181.75 137.344 181.973 137.859V138H180.268ZM177.569 136.761C178.079 136.761 178.562 136.629 179.02 136.365C179.477 136.102 179.808 135.759 180.013 135.337V133.386H178.738C176.746 133.386 175.75 133.969 175.75 135.135C175.75 135.645 175.92 136.043 176.26 136.33C176.6 136.617 177.036 136.761 177.569 136.761ZM190.331 129.835H185.945V138H184.311V128.49H190.331V129.835ZM197.617 138C197.523 137.812 197.447 137.479 197.389 136.998C196.633 137.783 195.73 138.176 194.682 138.176C193.744 138.176 192.974 137.912 192.37 137.385C191.772 136.852 191.474 136.178 191.474 135.363C191.474 134.373 191.849 133.605 192.599 133.061C193.354 132.51 194.415 132.234 195.78 132.234H197.362V131.487C197.362 130.919 197.192 130.468 196.853 130.134C196.513 129.794 196.012 129.624 195.35 129.624C194.77 129.624 194.283 129.771 193.891 130.063C193.498 130.356 193.302 130.711 193.302 131.127H191.667C191.667 130.652 191.834 130.195 192.168 129.756C192.508 129.311 192.965 128.959 193.539 128.701C194.119 128.443 194.755 128.314 195.446 128.314C196.542 128.314 197.4 128.59 198.021 129.141C198.643 129.686 198.965 130.438 198.988 131.399V135.776C198.988 136.649 199.1 137.344 199.322 137.859V138H197.617ZM194.919 136.761C195.429 136.761 195.912 136.629 196.369 136.365C196.826 136.102 197.157 135.759 197.362 135.337V133.386H196.088C194.096 133.386 193.1 133.969 193.1 135.135C193.1 135.645 193.27 136.043 193.609 136.33C193.949 136.617 194.386 136.761 194.919 136.761ZM208.463 129.809H205.272V138H203.646V129.809H200.518V128.49H208.463V129.809ZM209.245 133.157C209.245 132.226 209.427 131.388 209.79 130.644C210.159 129.899 210.669 129.325 211.319 128.921C211.976 128.517 212.723 128.314 213.561 128.314C214.855 128.314 215.901 128.763 216.698 129.659C217.501 130.556 217.902 131.748 217.902 133.236V133.351C217.902 134.276 217.724 135.108 217.366 135.847C217.015 136.579 216.508 137.15 215.846 137.561C215.189 137.971 214.434 138.176 213.578 138.176C212.289 138.176 211.243 137.728 210.44 136.831C209.644 135.935 209.245 134.748 209.245 133.271V133.157ZM210.88 133.351C210.88 134.405 211.123 135.252 211.609 135.891C212.102 136.529 212.758 136.849 213.578 136.849C214.404 136.849 215.061 136.526 215.547 135.882C216.033 135.231 216.276 134.323 216.276 133.157C216.276 132.114 216.027 131.271 215.529 130.626C215.037 129.976 214.381 129.65 213.561 129.65C212.758 129.65 212.11 129.97 211.618 130.608C211.126 131.247 210.88 132.161 210.88 133.351ZM231.587 138H229.952V134.555C229.237 134.742 228.505 134.836 227.755 134.836C226.565 134.836 225.657 134.531 225.03 133.922C224.409 133.312 224.093 132.445 224.081 131.32V128.481H225.707V131.373C225.736 132.791 226.419 133.5 227.755 133.5C228.505 133.5 229.237 133.406 229.952 133.219V128.49H231.587V138ZM240.068 138C239.975 137.812 239.898 137.479 239.84 136.998C239.084 137.783 238.182 138.176 237.133 138.176C236.195 138.176 235.425 137.912 234.821 137.385C234.224 136.852 233.925 136.178 233.925 135.363C233.925 134.373 234.3 133.605 235.05 133.061C235.806 132.51 236.866 132.234 238.231 132.234H239.813V131.487C239.813 130.919 239.644 130.468 239.304 130.134C238.964 129.794 238.463 129.624 237.801 129.624C237.221 129.624 236.734 129.771 236.342 130.063C235.949 130.356 235.753 130.711 235.753 131.127H234.118C234.118 130.652 234.285 130.195 234.619 129.756C234.959 129.311 235.416 128.959 235.99 128.701C236.57 128.443 237.206 128.314 237.897 128.314C238.993 128.314 239.852 128.59 240.473 129.141C241.094 129.686 241.416 130.438 241.439 131.399V135.776C241.439 136.649 241.551 137.344 241.773 137.859V138H240.068ZM237.37 136.761C237.88 136.761 238.363 136.629 238.82 136.365C239.277 136.102 239.608 135.759 239.813 135.337V133.386H238.539C236.547 133.386 235.551 133.969 235.551 135.135C235.551 135.645 235.721 136.043 236.061 136.33C236.4 136.617 236.837 136.761 237.37 136.761ZM247.803 136.849C248.383 136.849 248.89 136.673 249.323 136.321C249.757 135.97 249.997 135.53 250.044 135.003H251.582C251.553 135.548 251.365 136.066 251.02 136.559C250.674 137.051 250.211 137.443 249.631 137.736C249.057 138.029 248.447 138.176 247.803 138.176C246.508 138.176 245.477 137.745 244.709 136.884C243.947 136.017 243.566 134.833 243.566 133.333V133.061C243.566 132.135 243.736 131.312 244.076 130.591C244.416 129.87 244.902 129.311 245.535 128.912C246.174 128.514 246.927 128.314 247.794 128.314C248.86 128.314 249.745 128.634 250.448 129.272C251.157 129.911 251.535 130.74 251.582 131.76H250.044C249.997 131.145 249.763 130.641 249.341 130.248C248.925 129.85 248.409 129.65 247.794 129.65C246.968 129.65 246.326 129.949 245.869 130.547C245.418 131.139 245.192 131.997 245.192 133.122V133.43C245.192 134.525 245.418 135.369 245.869 135.961C246.32 136.553 246.965 136.849 247.803 136.849ZM256.521 135.618L258.736 128.49H260.477L256.653 139.468C256.062 141.05 255.121 141.841 253.832 141.841L253.524 141.814L252.918 141.7V140.382L253.357 140.417C253.908 140.417 254.336 140.306 254.641 140.083C254.951 139.86 255.206 139.453 255.405 138.861L255.766 137.895L252.373 128.49H254.148L256.521 135.618ZM260.934 140.549L260.011 139.916C260.562 139.148 260.849 138.357 260.872 137.543V136.075H262.463V137.35C262.463 137.941 262.316 138.533 262.023 139.125C261.736 139.717 261.373 140.191 260.934 140.549ZM274.855 138C274.762 137.812 274.686 137.479 274.627 136.998C273.871 137.783 272.969 138.176 271.92 138.176C270.982 138.176 270.212 137.912 269.608 137.385C269.011 136.852 268.712 136.178 268.712 135.363C268.712 134.373 269.087 133.605 269.837 133.061C270.593 132.51 271.653 132.234 273.019 132.234H274.601V131.487C274.601 130.919 274.431 130.468 274.091 130.134C273.751 129.794 273.25 129.624 272.588 129.624C272.008 129.624 271.521 129.771 271.129 130.063C270.736 130.356 270.54 130.711 270.54 131.127H268.905C268.905 130.652 269.072 130.195 269.406 129.756C269.746 129.311 270.203 128.959 270.777 128.701C271.357 128.443 271.993 128.314 272.685 128.314C273.78 128.314 274.639 128.59 275.26 129.141C275.881 129.686 276.203 130.438 276.227 131.399V135.776C276.227 136.649 276.338 137.344 276.561 137.859V138H274.855ZM272.157 136.761C272.667 136.761 273.15 136.629 273.607 136.365C274.064 136.102 274.396 135.759 274.601 135.337V133.386H273.326C271.334 133.386 270.338 133.969 270.338 135.135C270.338 135.645 270.508 136.043 270.848 136.33C271.188 136.617 271.624 136.761 272.157 136.761ZM286.571 128.49V138H284.937V129.835H281.702L281.509 133.395C281.403 135.029 281.128 136.198 280.683 136.901C280.243 137.604 279.543 137.971 278.582 138H277.932V136.567L278.397 136.532C278.925 136.474 279.303 136.169 279.531 135.618C279.76 135.067 279.906 134.048 279.971 132.56L280.146 128.49H286.571ZM293.128 138.176C291.839 138.176 290.79 137.754 289.981 136.91C289.173 136.061 288.769 134.927 288.769 133.509V133.21C288.769 132.267 288.947 131.426 289.305 130.688C289.668 129.943 290.172 129.363 290.816 128.947C291.467 128.525 292.17 128.314 292.926 128.314C294.162 128.314 295.123 128.722 295.809 129.536C296.494 130.351 296.837 131.517 296.837 133.034V133.711H290.395C290.418 134.648 290.69 135.407 291.212 135.987C291.739 136.562 292.407 136.849 293.216 136.849C293.79 136.849 294.276 136.731 294.675 136.497C295.073 136.263 295.422 135.952 295.721 135.565L296.714 136.339C295.917 137.563 294.722 138.176 293.128 138.176ZM292.926 129.65C292.27 129.65 291.719 129.891 291.273 130.371C290.828 130.846 290.553 131.514 290.447 132.375H295.211V132.252C295.164 131.426 294.941 130.787 294.543 130.336C294.145 129.879 293.605 129.65 292.926 129.65ZM310.46 128.49V138H308.825V134.3H306.373L304.132 138H302.374L304.765 134.054C304.155 133.831 303.687 133.488 303.358 133.025C303.036 132.557 302.875 132.012 302.875 131.391C302.875 130.523 303.2 129.826 303.851 129.299C304.501 128.766 305.371 128.496 306.461 128.49H310.46ZM304.51 131.408C304.51 131.871 304.668 132.246 304.984 132.533C305.301 132.814 305.72 132.958 306.241 132.964H308.825V129.809H306.487C305.884 129.809 305.403 129.958 305.046 130.257C304.688 130.55 304.51 130.934 304.51 131.408ZM320.726 131.962L322.835 128.49H324.733L321.622 133.192L324.83 138H322.949L320.752 134.44L318.555 138H316.665L319.873 133.192L316.762 128.49H318.643L320.726 131.962ZM325.858 133.157C325.858 132.226 326.04 131.388 326.403 130.644C326.772 129.899 327.282 129.325 327.933 128.921C328.589 128.517 329.336 128.314 330.174 128.314C331.469 128.314 332.515 128.763 333.312 129.659C334.114 130.556 334.516 131.748 334.516 133.236V133.351C334.516 134.276 334.337 135.108 333.979 135.847C333.628 136.579 333.121 137.15 332.459 137.561C331.803 137.971 331.047 138.176 330.191 138.176C328.902 138.176 327.856 137.728 327.054 136.831C326.257 135.935 325.858 134.748 325.858 133.271V133.157ZM327.493 133.351C327.493 134.405 327.736 135.252 328.223 135.891C328.715 136.529 329.371 136.849 330.191 136.849C331.018 136.849 331.674 136.526 332.16 135.882C332.646 135.231 332.89 134.323 332.89 133.157C332.89 132.114 332.641 131.271 332.143 130.626C331.65 129.976 330.994 129.65 330.174 129.65C329.371 129.65 328.724 129.97 328.231 130.608C327.739 131.247 327.493 132.161 327.493 133.351ZM343.428 129.809H340.237V138H338.611V129.809H335.482V128.49H343.428V129.809ZM346.776 138H345.15V128.49H346.776V138ZM345.019 125.968C345.019 125.704 345.098 125.481 345.256 125.3C345.42 125.118 345.66 125.027 345.977 125.027C346.293 125.027 346.533 125.118 346.697 125.3C346.861 125.481 346.943 125.704 346.943 125.968C346.943 126.231 346.861 126.451 346.697 126.627C346.533 126.803 346.293 126.891 345.977 126.891C345.66 126.891 345.42 126.803 345.256 126.627C345.098 126.451 345.019 126.231 345.019 125.968ZM357.183 128.49V138H355.548V129.835H352.313L352.12 133.395C352.015 135.029 351.739 136.198 351.294 136.901C350.854 137.604 350.154 137.971 349.193 138H348.543V136.567L349.009 136.532C349.536 136.474 349.914 136.169 350.143 135.618C350.371 135.067 350.518 134.048 350.582 132.56L350.758 128.49H357.183ZM365.664 138C365.57 137.812 365.494 137.479 365.436 136.998C364.68 137.783 363.777 138.176 362.729 138.176C361.791 138.176 361.021 137.912 360.417 137.385C359.819 136.852 359.521 136.178 359.521 135.363C359.521 134.373 359.896 133.605 360.646 133.061C361.401 132.51 362.462 132.234 363.827 132.234H365.409V131.487C365.409 130.919 365.239 130.468 364.899 130.134C364.56 129.794 364.059 129.624 363.396 129.624C362.816 129.624 362.33 129.771 361.938 130.063C361.545 130.356 361.349 130.711 361.349 131.127H359.714C359.714 130.652 359.881 130.195 360.215 129.756C360.555 129.311 361.012 128.959 361.586 128.701C362.166 128.443 362.802 128.314 363.493 128.314C364.589 128.314 365.447 128.59 366.068 129.141C366.689 129.686 367.012 130.438 367.035 131.399V135.776C367.035 136.649 367.146 137.344 367.369 137.859V138H365.664ZM362.966 136.761C363.476 136.761 363.959 136.629 364.416 136.365C364.873 136.102 365.204 135.759 365.409 135.337V133.386H364.135C362.143 133.386 361.146 133.969 361.146 135.135C361.146 135.645 361.316 136.043 361.656 136.33C361.996 136.617 362.433 136.761 362.966 136.761ZM378.224 129.035C379.419 129.035 380.374 129.437 381.089 130.239C381.81 131.036 382.17 132.088 382.17 133.395V133.544C382.17 134.44 381.997 135.243 381.651 135.952C381.306 136.655 380.808 137.203 380.157 137.596C379.513 137.982 378.769 138.176 377.925 138.176C376.647 138.176 375.619 137.751 374.84 136.901C374.061 136.046 373.671 134.9 373.671 133.465V132.674C373.671 130.676 374.04 129.088 374.778 127.91C375.522 126.732 376.618 126.015 378.065 125.757C378.886 125.61 379.439 125.432 379.727 125.221C380.014 125.01 380.157 124.72 380.157 124.351H381.493C381.493 125.083 381.326 125.654 380.992 126.064C380.664 126.475 380.137 126.765 379.41 126.935L378.197 127.207C377.23 127.436 376.504 127.822 376.018 128.367C375.537 128.906 375.224 129.627 375.077 130.529C375.938 129.533 376.987 129.035 378.224 129.035ZM377.907 130.371C377.11 130.371 376.478 130.641 376.009 131.18C375.54 131.713 375.306 132.454 375.306 133.403V133.544C375.306 134.563 375.54 135.372 376.009 135.97C376.483 136.562 377.122 136.857 377.925 136.857C378.733 136.857 379.372 136.559 379.841 135.961C380.31 135.363 380.544 134.49 380.544 133.342C380.544 132.445 380.307 131.728 379.832 131.188C379.363 130.644 378.722 130.371 377.907 130.371ZM389.992 128.49H391.618V138H389.992V131.065L385.606 138H383.98V128.49H385.606V135.434L389.992 128.49ZM49.7061 156.847L52.9404 149.49H54.9707V159H53.3447V152.083L50.2686 159H49.1436L46.0059 151.934V159H44.3799V149.49H46.4893L49.7061 156.847ZM63.4609 159C63.3672 158.812 63.291 158.479 63.2324 157.998C62.4766 158.783 61.5742 159.176 60.5254 159.176C59.5879 159.176 58.8174 158.912 58.2139 158.385C57.6162 157.852 57.3174 157.178 57.3174 156.363C57.3174 155.373 57.6924 154.605 58.4424 154.061C59.1982 153.51 60.2588 153.234 61.624 153.234H63.2061V152.487C63.2061 151.919 63.0361 151.468 62.6963 151.134C62.3564 150.794 61.8555 150.624 61.1934 150.624C60.6133 150.624 60.127 150.771 59.7344 151.063C59.3418 151.356 59.1455 151.711 59.1455 152.127H57.5107C57.5107 151.652 57.6777 151.195 58.0117 150.756C58.3516 150.311 58.8086 149.959 59.3828 149.701C59.9629 149.443 60.5986 149.314 61.29 149.314C62.3857 149.314 63.2441 149.59 63.8652 150.141C64.4863 150.686 64.8086 151.438 64.832 152.399V156.776C64.832 157.649 64.9434 158.344 65.166 158.859V159H63.4609ZM60.7627 157.761C61.2725 157.761 61.7559 157.629 62.2129 157.365C62.6699 157.102 63.001 156.759 63.2061 156.337V154.386H61.9316C59.9395 154.386 58.9434 154.969 58.9434 156.135C58.9434 156.645 59.1133 157.043 59.4531 157.33C59.793 157.617 60.2295 157.761 60.7627 157.761ZM74.3066 150.809H71.1162V159H69.4902V150.809H66.3613V149.49H74.3066V150.809ZM82.041 149.49H83.667V159H82.041V152.065L77.6553 159H76.0293V149.49H77.6553V156.434L82.041 149.49ZM90.6631 157.673L91.2256 156.979C91.8584 156.158 92.2188 154.928 92.3066 153.287L92.4561 149.49H98.582V157.673H99.8037V161.795H98.1777V159H91.542V161.795H89.916L89.9248 157.673H90.6631ZM92.5879 157.673H96.9561V150.993H94.0293L93.9326 153.261C93.833 155.153 93.3848 156.624 92.5879 157.673ZM101.175 154.157C101.175 153.226 101.356 152.388 101.72 151.644C102.089 150.899 102.599 150.325 103.249 149.921C103.905 149.517 104.652 149.314 105.49 149.314C106.785 149.314 107.831 149.763 108.628 150.659C109.431 151.556 109.832 152.748 109.832 154.236V154.351C109.832 155.276 109.653 156.108 109.296 156.847C108.944 157.579 108.438 158.15 107.775 158.561C107.119 158.971 106.363 159.176 105.508 159.176C104.219 159.176 103.173 158.728 102.37 157.831C101.573 156.935 101.175 155.748 101.175 154.271V154.157ZM102.81 154.351C102.81 155.405 103.053 156.252 103.539 156.891C104.031 157.529 104.688 157.849 105.508 157.849C106.334 157.849 106.99 157.526 107.477 156.882C107.963 156.231 108.206 155.323 108.206 154.157C108.206 153.114 107.957 152.271 107.459 151.626C106.967 150.976 106.311 150.65 105.49 150.65C104.688 150.65 104.04 150.97 103.548 151.608C103.056 152.247 102.81 153.161 102.81 154.351ZM117.347 156.847L120.581 149.49H122.611V159H120.985V152.083L117.909 159H116.784L113.646 151.934V159H112.021V149.49H114.13L117.347 156.847ZM131.102 159C131.008 158.812 130.932 158.479 130.873 157.998C130.117 158.783 129.215 159.176 128.166 159.176C127.229 159.176 126.458 158.912 125.854 158.385C125.257 157.852 124.958 157.178 124.958 156.363C124.958 155.373 125.333 154.605 126.083 154.061C126.839 153.51 127.899 153.234 129.265 153.234H130.847V152.487C130.847 151.919 130.677 151.468 130.337 151.134C129.997 150.794 129.496 150.624 128.834 150.624C128.254 150.624 127.768 150.771 127.375 151.063C126.982 151.356 126.786 151.711 126.786 152.127H125.151C125.151 151.652 125.318 151.195 125.652 150.756C125.992 150.311 126.449 149.959 127.023 149.701C127.604 149.443 128.239 149.314 128.931 149.314C130.026 149.314 130.885 149.59 131.506 150.141C132.127 150.686 132.449 151.438 132.473 152.399V156.776C132.473 157.649 132.584 158.344 132.807 158.859V159H131.102ZM128.403 157.761C128.913 157.761 129.396 157.629 129.854 157.365C130.311 157.102 130.642 156.759 130.847 156.337V154.386H129.572C127.58 154.386 126.584 154.969 126.584 156.135C126.584 156.645 126.754 157.043 127.094 157.33C127.434 157.617 127.87 157.761 128.403 157.761ZM136.797 149.49V157.673H140.277V149.49H141.903V157.673H145.375V149.49H147.01V159H135.162V149.49H136.797ZM157.346 159H155.72V154.939H151.352V159H149.717V149.49H151.352V153.612H155.72V149.49H157.346V159ZM161.74 153.524H164.025C164.148 152.259 164.597 151.242 165.37 150.475C166.149 149.701 167.131 149.314 168.314 149.314C169.557 149.314 170.573 149.733 171.364 150.571C172.155 151.409 172.583 152.499 172.647 153.841L172.656 154.351C172.656 155.276 172.475 156.111 172.111 156.855C171.748 157.6 171.238 158.174 170.582 158.578C169.926 158.977 169.176 159.176 168.332 159.176C167.107 159.176 166.105 158.777 165.326 157.98C164.547 157.178 164.11 156.138 164.017 154.86H161.74V159H160.114V149.49H161.74V153.524ZM165.625 154.351C165.625 155.405 165.868 156.252 166.354 156.891C166.847 157.529 167.506 157.849 168.332 157.849C169.158 157.849 169.812 157.523 170.292 156.873C170.778 156.223 171.021 155.317 171.021 154.157C171.021 153.12 170.775 152.276 170.283 151.626C169.791 150.976 169.135 150.65 168.314 150.65C167.506 150.65 166.855 150.97 166.363 151.608C165.871 152.247 165.625 153.161 165.625 154.351ZM186.191 150.809H183.001V159H181.375V150.809H178.246V149.49H186.191V150.809ZM187.923 159V149.49H191.632C192.897 149.49 193.867 149.713 194.541 150.158C195.221 150.598 195.561 151.245 195.561 152.101C195.561 152.54 195.429 152.938 195.165 153.296C194.901 153.647 194.512 153.917 193.996 154.104C194.57 154.239 195.03 154.503 195.376 154.896C195.728 155.288 195.903 155.757 195.903 156.302C195.903 157.175 195.581 157.843 194.937 158.306C194.298 158.769 193.393 159 192.221 159H187.923ZM189.549 154.825V157.69H192.238C192.918 157.69 193.425 157.564 193.759 157.312C194.099 157.061 194.269 156.706 194.269 156.249C194.269 155.3 193.571 154.825 192.177 154.825H189.549ZM189.549 153.524H191.649C193.173 153.524 193.935 153.079 193.935 152.188C193.935 151.298 193.214 150.838 191.772 150.809H189.549V153.524ZM203.928 159C203.834 158.812 203.758 158.479 203.699 157.998C202.943 158.783 202.041 159.176 200.992 159.176C200.055 159.176 199.284 158.912 198.681 158.385C198.083 157.852 197.784 157.178 197.784 156.363C197.784 155.373 198.159 154.605 198.909 154.061C199.665 153.51 200.726 153.234 202.091 153.234H203.673V152.487C203.673 151.919 203.503 151.468 203.163 151.134C202.823 150.794 202.322 150.624 201.66 150.624C201.08 150.624 200.594 150.771 200.201 151.063C199.809 151.356 199.612 151.711 199.612 152.127H197.978C197.978 151.652 198.145 151.195 198.479 150.756C198.818 150.311 199.275 149.959 199.85 149.701C200.43 149.443 201.065 149.314 201.757 149.314C202.853 149.314 203.711 149.59 204.332 150.141C204.953 150.686 205.275 151.438 205.299 152.399V156.776C205.299 157.649 205.41 158.344 205.633 158.859V159H203.928ZM201.229 157.761C201.739 157.761 202.223 157.629 202.68 157.365C203.137 157.102 203.468 156.759 203.673 156.337V154.386H202.398C200.406 154.386 199.41 154.969 199.41 156.135C199.41 156.645 199.58 157.043 199.92 157.33C200.26 157.617 200.696 157.761 201.229 157.761ZM215.881 154.351C215.881 155.798 215.55 156.964 214.888 157.849C214.226 158.733 213.329 159.176 212.198 159.176C211.044 159.176 210.136 158.81 209.474 158.077V162.656H207.848V149.49H209.333L209.412 150.545C210.074 149.725 210.994 149.314 212.172 149.314C213.314 149.314 214.217 149.745 214.879 150.606C215.547 151.468 215.881 152.666 215.881 154.201V154.351ZM214.255 154.166C214.255 153.094 214.026 152.247 213.569 151.626C213.112 151.005 212.485 150.694 211.688 150.694C210.704 150.694 209.966 151.131 209.474 152.004V156.548C209.96 157.415 210.704 157.849 211.706 157.849C212.485 157.849 213.104 157.541 213.561 156.926C214.023 156.305 214.255 155.385 214.255 154.166ZM224.107 149.49H225.733V159H224.107V152.065L219.722 159H218.096V149.49H219.722V156.434L224.107 149.49ZM236.113 159H234.487V154.939H230.119V159H228.484V149.49H230.119V153.612H234.487V149.49H236.113V159ZM241.694 154.948H240.508V159H238.873V149.49H240.508V153.516H241.571L244.771 149.49H246.739L242.978 154.061L247.056 159H244.99L241.694 154.948ZM251.564 156.618L253.779 149.49H255.52L251.696 160.468C251.104 162.05 250.164 162.841 248.875 162.841L248.567 162.814L247.961 162.7V161.382L248.4 161.417C248.951 161.417 249.379 161.306 249.684 161.083C249.994 160.86 250.249 160.453 250.448 159.861L250.809 158.895L247.416 149.49H249.191L251.564 156.618Z" fill="black"/>
<rect x="18" y="198" width="228" height="32" rx="15" fill="#F1FFE6"/>
<path d="M38.4551 218V214.678H36.4863L34.7227 218H33.5215L35.502 214.367C34.4004 213.934 33.8496 213.158 33.8496 212.041C33.8496 211.229 34.1152 210.598 34.6465 210.148C35.1816 209.695 35.9238 209.469 36.873 209.469H39.5859V218H38.4551ZM34.9746 212.041C34.9746 212.557 35.1348 212.971 35.4551 213.283C35.7793 213.596 36.2285 213.754 36.8027 213.758H38.4551V210.395H36.8555C36.2461 210.395 35.7793 210.539 35.4551 210.828C35.1348 211.117 34.9746 211.521 34.9746 212.041ZM43.4355 215.299H42.6445V218H41.5547V211.66H42.6445V214.344H43.3535L45.4863 211.66H46.7988L44.291 214.707L47.0098 218H45.6328L43.4355 215.299ZM51.8555 218C51.793 217.875 51.7422 217.652 51.7031 217.332C51.1992 217.855 50.5977 218.117 49.8984 218.117C49.2734 218.117 48.7598 217.941 48.3574 217.59C47.959 217.234 47.7598 216.785 47.7598 216.242C47.7598 215.582 48.0098 215.07 48.5098 214.707C49.0137 214.34 49.7207 214.156 50.6309 214.156H51.6855V213.658C51.6855 213.279 51.5723 212.979 51.3457 212.756C51.1191 212.529 50.7852 212.416 50.3438 212.416C49.957 212.416 49.6328 212.514 49.3711 212.709C49.1094 212.904 48.9785 213.141 48.9785 213.418H47.8887C47.8887 213.102 48 212.797 48.2227 212.504C48.4492 212.207 48.7539 211.973 49.1367 211.801C49.5234 211.629 49.9473 211.543 50.4082 211.543C51.1387 211.543 51.7109 211.727 52.125 212.094C52.5391 212.457 52.7539 212.959 52.7695 213.6V216.518C52.7695 217.1 52.8438 217.562 52.9922 217.906V218H51.8555ZM50.0566 217.174C50.3965 217.174 50.7188 217.086 51.0234 216.91C51.3281 216.734 51.5488 216.506 51.6855 216.225V214.924H50.8359C49.5078 214.924 48.8438 215.312 48.8438 216.09C48.8438 216.43 48.957 216.695 49.1836 216.887C49.4102 217.078 49.7012 217.174 50.0566 217.174ZM62.8008 214.9C62.8008 215.865 62.5801 216.643 62.1387 217.232C61.6973 217.822 61.0996 218.117 60.3457 218.117C59.5762 218.117 58.9707 217.873 58.5293 217.385V220.438H57.4453V211.66H58.4355L58.4883 212.363C58.9297 211.816 59.543 211.543 60.3281 211.543C61.0898 211.543 61.6914 211.83 62.1328 212.404C62.5781 212.979 62.8008 213.777 62.8008 214.801V214.9ZM61.7168 214.777C61.7168 214.062 61.5645 213.498 61.2598 213.084C60.9551 212.67 60.5371 212.463 60.0059 212.463C59.3496 212.463 58.8574 212.754 58.5293 213.336V216.365C58.8535 216.943 59.3496 217.232 60.0176 217.232C60.5371 217.232 60.9492 217.027 61.2539 216.617C61.5625 216.203 61.7168 215.59 61.7168 214.777ZM65.3613 218H64.2773V211.66H65.3613V218ZM64.1895 209.979C64.1895 209.803 64.2422 209.654 64.3477 209.533C64.457 209.412 64.6172 209.352 64.8281 209.352C65.0391 209.352 65.1992 209.412 65.3086 209.533C65.418 209.654 65.4727 209.803 65.4727 209.979C65.4727 210.154 65.418 210.301 65.3086 210.418C65.1992 210.535 65.0391 210.594 64.8281 210.594C64.6172 210.594 64.457 210.535 64.3477 210.418C64.2422 210.301 64.1895 210.154 64.1895 209.979ZM70.5879 213.395C70.5879 213.098 70.4746 212.863 70.248 212.691C70.0215 212.516 69.7109 212.428 69.3164 212.428C68.9336 212.428 68.6133 212.527 68.3555 212.727C68.1016 212.926 67.9746 213.16 67.9746 213.43H66.8965C66.8965 212.879 67.127 212.428 67.5879 212.076C68.0488 211.725 68.625 211.549 69.3164 211.549C70.0586 211.549 70.6367 211.709 71.0508 212.029C71.4648 212.346 71.6719 212.799 71.6719 213.389C71.6719 213.674 71.5859 213.936 71.4141 214.174C71.2422 214.412 70.998 214.602 70.6816 214.742C71.4199 214.992 71.7891 215.484 71.7891 216.219C71.7891 216.801 71.5645 217.262 71.1152 217.602C70.666 217.941 70.0664 218.111 69.3164 218.111C68.5859 218.111 67.9824 217.934 67.5059 217.578C67.0332 217.219 66.7969 216.734 66.7969 216.125H67.875C67.875 216.434 68.0117 216.699 68.2852 216.922C68.5625 217.141 68.9062 217.25 69.3164 217.25C69.7305 217.25 70.0645 217.154 70.3184 216.963C70.5723 216.771 70.6992 216.523 70.6992 216.219C70.6992 215.863 70.5918 215.609 70.377 215.457C70.166 215.301 69.8359 215.223 69.3867 215.223H68.3027V214.309H69.4805C70.2188 214.289 70.5879 213.984 70.5879 213.395ZM78.375 218H77.291V215.293H74.3789V218H73.2891V211.66H74.3789V214.408H77.291V211.66H78.375V218ZM84.2227 211.66H85.3066V218H84.2227V213.377L81.2988 218H80.2148V211.66H81.2988V216.289L84.2227 211.66ZM87.1406 211.66H88.2305V217.115H91.1484V211.66H92.2324V217.115H92.9883L92.8828 219.881H91.9102V218H87.1406V211.66ZM99.0762 211.66V218H97.9863V215.533H96.3516L94.8574 218H93.6855L95.2793 215.369C94.873 215.221 94.5605 214.992 94.3418 214.684C94.127 214.371 94.0195 214.008 94.0195 213.594C94.0195 213.016 94.2363 212.551 94.6699 212.199C95.1035 211.844 95.6836 211.664 96.4102 211.66H99.0762ZM95.1094 213.605C95.1094 213.914 95.2148 214.164 95.4258 214.355C95.6367 214.543 95.916 214.639 96.2637 214.643H97.9863V212.539H96.4277C96.0254 212.539 95.7051 212.639 95.4668 212.838C95.2285 213.033 95.1094 213.289 95.1094 213.605ZM107.443 216.564L109.6 211.66H110.953V218H109.869V213.389L107.818 218H107.068L104.977 213.289V218H103.893V211.66H105.299L107.443 216.564ZM113.877 218H112.793V211.66H113.877V218ZM112.705 209.979C112.705 209.803 112.758 209.654 112.863 209.533C112.973 209.412 113.133 209.352 113.344 209.352C113.555 209.352 113.715 209.412 113.824 209.533C113.934 209.654 113.988 209.803 113.988 209.979C113.988 210.154 113.934 210.301 113.824 210.418C113.715 210.535 113.555 210.594 113.344 210.594C113.133 210.594 112.973 210.535 112.863 210.418C112.758 210.301 112.705 210.154 112.705 209.979ZM120.674 215.246H119.912V218H118.828V215.246H118.066L116.291 218H114.92L117.188 214.719L115.137 211.66H116.449L118.084 214.285H118.828V211.66H119.912V214.285H120.65L122.297 211.66H123.609L121.553 214.725L123.82 218H122.449L120.674 215.246ZM133.154 210.395H129.041V212.949H131.162C132.053 212.961 132.748 213.189 133.248 213.635C133.748 214.08 133.998 214.686 133.998 215.451C133.998 216.221 133.746 216.834 133.242 217.291C132.738 217.748 132.051 217.984 131.18 218H127.91V209.469H133.154V210.395ZM129.041 213.875V217.08H131.098C131.656 217.08 132.09 216.932 132.398 216.635C132.711 216.338 132.867 215.939 132.867 215.439C132.867 214.959 132.717 214.58 132.416 214.303C132.119 214.025 131.695 213.883 131.145 213.875H129.041ZM136.529 218H135.445V211.66H136.529V218ZM135.357 209.979C135.357 209.803 135.41 209.654 135.516 209.533C135.625 209.412 135.785 209.352 135.996 209.352C136.207 209.352 136.367 209.412 136.477 209.533C136.586 209.654 136.641 209.803 136.641 209.979C136.641 210.154 136.586 210.301 136.477 210.418C136.367 210.535 136.207 210.594 135.996 210.594C135.785 210.594 135.625 210.535 135.516 210.418C135.41 210.301 135.357 210.154 135.357 209.979ZM142.365 212.557H139.441V218H138.352V211.66H142.365V212.557ZM145.822 218.117C144.963 218.117 144.264 217.836 143.725 217.273C143.186 216.707 142.916 215.951 142.916 215.006V214.807C142.916 214.178 143.035 213.617 143.273 213.125C143.516 212.629 143.852 212.242 144.281 211.965C144.715 211.684 145.184 211.543 145.688 211.543C146.512 211.543 147.152 211.814 147.609 212.357C148.066 212.9 148.295 213.678 148.295 214.689V215.141H144C144.016 215.766 144.197 216.271 144.545 216.658C144.896 217.041 145.342 217.232 145.881 217.232C146.264 217.232 146.588 217.154 146.854 216.998C147.119 216.842 147.352 216.635 147.551 216.377L148.213 216.893C147.682 217.709 146.885 218.117 145.822 218.117ZM145.688 212.434C145.25 212.434 144.883 212.594 144.586 212.914C144.289 213.23 144.105 213.676 144.035 214.25H147.211V214.168C147.18 213.617 147.031 213.191 146.766 212.891C146.5 212.586 146.141 212.434 145.688 212.434ZM154.752 211.66V218H153.662V212.557H151.506L151.377 214.93C151.307 216.02 151.123 216.799 150.826 217.268C150.533 217.736 150.066 217.98 149.426 218H148.992V217.045L149.303 217.021C149.654 216.982 149.906 216.779 150.059 216.412C150.211 216.045 150.309 215.365 150.352 214.373L150.469 211.66H154.752ZM159.123 218.117C158.264 218.117 157.564 217.836 157.025 217.273C156.486 216.707 156.217 215.951 156.217 215.006V214.807C156.217 214.178 156.336 213.617 156.574 213.125C156.816 212.629 157.152 212.242 157.582 211.965C158.016 211.684 158.484 211.543 158.988 211.543C159.812 211.543 160.453 211.814 160.91 212.357C161.367 212.9 161.596 213.678 161.596 214.689V215.141H157.301C157.316 215.766 157.498 216.271 157.846 216.658C158.197 217.041 158.643 217.232 159.182 217.232C159.564 217.232 159.889 217.154 160.154 216.998C160.42 216.842 160.652 216.635 160.852 216.377L161.514 216.893C160.982 217.709 160.186 218.117 159.123 218.117ZM158.988 212.434C158.551 212.434 158.184 212.594 157.887 212.914C157.59 213.23 157.406 213.676 157.336 214.25H160.512V214.168C160.48 213.617 160.332 213.191 160.066 212.891C159.801 212.586 159.441 212.434 158.988 212.434ZM166.506 216.564L168.662 211.66H170.016V218H168.932V213.389L166.881 218H166.131L164.039 213.289V218H162.955V211.66H164.361L166.506 216.564ZM175.916 218H174.832V211.66H175.916V218ZM174.744 209.979C174.744 209.803 174.797 209.654 174.902 209.533C175.012 209.412 175.172 209.352 175.383 209.352C175.594 209.352 175.754 209.412 175.863 209.533C175.973 209.654 176.027 209.803 176.027 209.979C176.027 210.154 175.973 210.301 175.863 210.418C175.754 210.535 175.594 210.594 175.383 210.594C175.172 210.594 175.012 210.535 174.902 210.418C174.797 210.301 174.744 210.154 174.744 209.979ZM182.256 209.469L185.045 216.43L187.834 209.469H189.293V218H188.168V214.678L188.273 211.092L185.473 218H184.611L181.816 211.109L181.928 214.678V218H180.803V209.469H182.256ZM190.822 214.771C190.822 214.15 190.943 213.592 191.186 213.096C191.432 212.6 191.771 212.217 192.205 211.947C192.643 211.678 193.141 211.543 193.699 211.543C194.562 211.543 195.26 211.842 195.791 212.439C196.326 213.037 196.594 213.832 196.594 214.824V214.9C196.594 215.518 196.475 216.072 196.236 216.564C196.002 217.053 195.664 217.434 195.223 217.707C194.785 217.98 194.281 218.117 193.711 218.117C192.852 218.117 192.154 217.818 191.619 217.221C191.088 216.623 190.822 215.832 190.822 214.848V214.771ZM191.912 214.9C191.912 215.604 192.074 216.168 192.398 216.594C192.727 217.02 193.164 217.232 193.711 217.232C194.262 217.232 194.699 217.018 195.023 216.588C195.348 216.154 195.51 215.549 195.51 214.771C195.51 214.076 195.344 213.514 195.012 213.084C194.684 212.65 194.246 212.434 193.699 212.434C193.164 212.434 192.732 212.646 192.404 213.072C192.076 213.498 191.912 214.107 191.912 214.9ZM203.139 218H202.055V212.557H199.137V218H198.047V211.66H203.139V218ZM207.422 217.232C207.809 217.232 208.146 217.115 208.436 216.881C208.725 216.646 208.885 216.354 208.916 216.002H209.941C209.922 216.365 209.797 216.711 209.566 217.039C209.336 217.367 209.027 217.629 208.641 217.824C208.258 218.02 207.852 218.117 207.422 218.117C206.559 218.117 205.871 217.83 205.359 217.256C204.852 216.678 204.598 215.889 204.598 214.889V214.707C204.598 214.09 204.711 213.541 204.938 213.061C205.164 212.58 205.488 212.207 205.91 211.941C206.336 211.676 206.838 211.543 207.416 211.543C208.127 211.543 208.717 211.756 209.186 212.182C209.658 212.607 209.91 213.16 209.941 213.84H208.916C208.885 213.43 208.729 213.094 208.447 212.832C208.17 212.566 207.826 212.434 207.416 212.434C206.865 212.434 206.438 212.633 206.133 213.031C205.832 213.426 205.682 213.998 205.682 214.748V214.953C205.682 215.684 205.832 216.246 206.133 216.641C206.434 217.035 206.863 217.232 207.422 217.232ZM210.873 214.771C210.873 214.15 210.994 213.592 211.236 213.096C211.482 212.6 211.822 212.217 212.256 211.947C212.693 211.678 213.191 211.543 213.75 211.543C214.613 211.543 215.311 211.842 215.842 212.439C216.377 213.037 216.645 213.832 216.645 214.824V214.9C216.645 215.518 216.525 216.072 216.287 216.564C216.053 217.053 215.715 217.434 215.273 217.707C214.836 217.98 214.332 218.117 213.762 218.117C212.902 218.117 212.205 217.818 211.67 217.221C211.139 216.623 210.873 215.832 210.873 214.848V214.771ZM211.963 214.9C211.963 215.604 212.125 216.168 212.449 216.594C212.777 217.02 213.215 217.232 213.762 217.232C214.312 217.232 214.75 217.018 215.074 216.588C215.398 216.154 215.561 215.549 215.561 214.771C215.561 214.076 215.395 213.514 215.062 213.084C214.734 212.65 214.297 212.434 213.75 212.434C213.215 212.434 212.783 212.646 212.455 213.072C212.127 213.498 211.963 214.107 211.963 214.9ZM221.654 216.564L223.811 211.66H225.164V218H224.08V213.389L222.029 218H221.279L219.188 213.289V218H218.104V211.66H219.51L221.654 216.564ZM228.182 215.598C228.189 215.133 228.242 214.766 228.34 214.496C228.438 214.227 228.637 213.928 228.938 213.6L229.705 212.809C230.033 212.438 230.197 212.039 230.197 211.613C230.197 211.203 230.09 210.883 229.875 210.652C229.66 210.418 229.348 210.301 228.938 210.301C228.539 210.301 228.219 210.406 227.977 210.617C227.734 210.828 227.613 211.111 227.613 211.467H226.529C226.537 210.834 226.762 210.324 227.203 209.938C227.648 209.547 228.227 209.352 228.938 209.352C229.676 209.352 230.25 209.551 230.66 209.949C231.074 210.344 231.281 210.887 231.281 211.578C231.281 212.262 230.965 212.936 230.332 213.6L229.693 214.232C229.408 214.549 229.266 215.004 229.266 215.598H228.182ZM228.135 217.455C228.135 217.279 228.188 217.133 228.293 217.016C228.402 216.895 228.562 216.834 228.773 216.834C228.984 216.834 229.145 216.895 229.254 217.016C229.363 217.133 229.418 217.279 229.418 217.455C229.418 217.631 229.363 217.777 229.254 217.895C229.145 218.008 228.984 218.064 228.773 218.064C228.562 218.064 228.402 218.008 228.293 217.895C228.188 217.777 228.135 217.631 228.135 217.455Z" fill="black"/>
</svg>
