<svg width="50" height="46" viewBox="0 0 50 46" fill="none" xmlns="http://www.w3.org/2000/svg">
<path d="M24.9998 19.5157C17.2449 19.5157 6.24977 31.8551 6.24977 39.6441C6.24977 43.1521 8.86794 45.2479 13.2556 45.2479C18.0252 45.2479 21.1746 42.727 24.9998 42.727C28.8582 42.727 32.0164 45.2479 36.7439 45.2479C41.1316 45.2479 43.7498 43.1521 43.7498 39.6441C43.7498 31.8551 32.7547 19.5157 24.9998 19.5157ZM10.617 18.2482C9.60134 14.7653 6.47243 12.5097 3.62868 13.2093C0.784929 13.9089 -0.696516 17.2993 0.319109 20.7822C1.33473 24.2651 4.46364 26.5207 7.30739 25.8211C10.1511 25.1215 11.6326 21.7311 10.617 18.2482ZM18.8904 16.1594C21.9119 15.3412 23.4236 11.1397 22.2674 6.77523C21.1111 2.4108 17.7244 -0.462962 14.7029 0.355242C11.6814 1.17345 10.1697 5.37503 11.3259 9.73946C12.4822 14.1039 15.8699 16.9787 18.8904 16.1594ZM46.3699 13.2103C43.5261 12.5107 40.3982 14.7663 39.3816 18.2492C38.366 21.7321 39.8474 25.1225 42.6912 25.8221C45.5349 26.5217 48.6629 24.2661 49.6795 20.7832C50.6951 17.3003 49.2136 13.9099 46.3699 13.2103ZM31.1091 16.1594C34.1306 16.9776 37.5173 14.1039 38.6736 9.73946C39.8298 5.37503 38.3181 1.17445 35.2966 0.355242C32.2752 -0.463968 28.8884 2.4108 27.7322 6.77523C26.5759 11.1397 28.0877 15.3412 31.1091 16.1594Z" fill="#5C4937"/>
</svg>
