<svg width="40" height="38" viewBox="0 0 40 38" fill="none" xmlns="http://www.w3.org/2000/svg">
    <path d="M19.3018 17.5799C15.084 19.5447 12.2303 29.0416 14.2037 33.2779C15.0925 35.1859 17.0474 35.6624 19.4338 34.5507C22.0279 33.3423 23.1021 31.1733 25.1826 30.2041C27.2811 29.2265 29.6375 29.7975 32.2087 28.5997C34.5951 27.488 35.4881 25.6849 34.5993 23.7769C32.6259 19.5406 23.5195 15.6151 19.3018 17.5799ZM11.158 20.5345C9.72324 18.8976 7.45 18.4635 6.08058 19.5645C4.71117 20.6655 4.76443 22.8848 6.19924 24.5218C7.63404 26.1588 9.90728 26.5928 11.2767 25.4918C12.6461 24.3908 12.5929 22.1715 11.158 20.5345ZM15.1286 17.3024C16.5647 16.0918 16.3223 13.4236 14.5877 11.3429C12.8531 9.26207 10.283 8.55713 8.84697 9.76766C7.41093 10.9782 7.65325 13.6464 9.38788 15.7272C11.1225 17.808 13.6934 18.5132 15.1286 17.3024ZM29.3271 8.73616C27.6031 9.07616 26.4734 11.0954 26.8029 13.2473C27.1329 15.3989 28.7977 16.8675 30.5216 16.5275C32.2455 16.1875 33.3753 14.1683 33.0458 12.0164C32.7157 9.86482 31.051 8.39617 29.3271 8.73616ZM21.7742 14.2066C23.6248 13.8861 24.7387 11.465 24.2618 8.79836C23.7849 6.13168 21.8984 4.23006 20.0476 4.55003C18.1967 4.87 17.083 7.2916 17.5599 9.95828C18.0369 12.625 19.9236 14.5271 21.7742 14.2066Z" fill="#5C4937"/>
</svg>